<?xml version="1.0" encoding="utf-8"?>
<!-- Generator: Adobe Illustrator 23.1.0, SVG Export Plug-In . SVG Version: 6.00 Build 0)  -->
<svg version="1.1" id="Layer_1" xmlns="http://www.w3.org/2000/svg" xmlns:xlink="http://www.w3.org/1999/xlink" x="0px" y="0px"
	 viewBox="0 0 4200 2800" style="enable-background:new 0 0 4200 2800;" xml:space="preserve">
<style type="text/css">
	.st0{fill:#FFFFFF;}
	.st1{fill:#00A44D;}
	.st2{fill:#1F92D0;}
	.st3{fill:#2A95D2;}
	.st4{fill:#346AB2;}
	.st5{fill:#2A2D7C;}
</style>
<rect class="st0" width="4200" height="2800"/>
<g>
	<g>
		<path class="st1" d="M1152.56,1274.72c3.31-4.57,6.77-8.78,10.05-13.07c1.19-1.54,2.37-3.09,3.51-4.64
			c1.41-0.14,2.83-0.31,4.24-0.51c-1.18-0.16-2.36-0.31-3.55-0.43c1.79-2.44,3.52-4.9,5.16-7.4c1.63-2.49,3.18-5.01,4.61-7.6
			c1.19-0.1,2.39-0.21,3.58-0.33c-1.07-0.11-2.15-0.21-3.22-0.3c0.99-1.8,1.92-3.63,2.79-5.51c1.47-3.15,2.72-6.39,3.78-9.81
			c0.55-0.05,1.1-0.1,1.64-0.14c-0.52-0.05-1.04-0.1-1.56-0.14c0.53-1.69,1.01-3.42,1.44-5.19c1.31,5.51,0.84,11.42-0.64,16.95
			c-1.5,5.55-4.02,10.79-7.15,15.53c-3.13,4.76-6.86,9.05-10.99,12.87C1162.09,1268.78,1157.58,1272.15,1152.56,1274.72"/>
		<path class="st2" d="M1185.14,1224.98c-0.55,0.05-1.09,0.1-1.64,0.14c0.03-0.1,0.06-0.19,0.08-0.28
			C1184.1,1224.88,1184.62,1224.93,1185.14,1224.98"/>
		<path class="st2" d="M1180.15,1240.74c-1.19,0.12-2.39,0.23-3.58,0.33c0.12-0.21,0.24-0.42,0.36-0.63
			C1178.01,1240.53,1179.08,1240.63,1180.15,1240.74"/>
		<path class="st2" d="M1166.12,1257.01c0.23-0.32,0.47-0.62,0.69-0.94c1.18,0.12,2.36,0.27,3.55,0.43
			C1168.94,1256.7,1167.53,1256.86,1166.12,1257.01"/>
		<path class="st1" d="M1094.48,1340.18c0.4-2.6,1.05-5.13,1.82-7.6c0.75-2.47,1.76-4.83,2.83-7.13c1.08-2.3,2.31-4.5,3.64-6.62
			c2.64-4.24,5.69-8.14,8.99-11.74c3.3-3.61,6.85-6.92,10.58-9.97c3.72-3.06,7.65-5.84,11.73-8.33c-2.04,2.18-4.03,4.38-5.97,6.6
			l-0.01,0.01c-0.85,0.14-1.72,0.32-2.57,0.52c0.6,0.14,1.2,0.27,1.8,0.38c-3.98,4.63-7.7,9.39-11,14.37
			c-0.12,0.18-0.24,0.36-0.36,0.54c-1.38,0.14-2.76,0.29-4.15,0.47c1.19,0.15,2.38,0.29,3.57,0.4c-3.07,4.8-5.75,9.8-7.71,14.94
			c-1.58,0.12-3.16,0.27-4.74,0.42c1.48,0.15,2.96,0.28,4.43,0.4c-0.88,2.37-1.59,4.77-2.11,7.19c-0.44,2.11-0.81,4.22-0.93,6.33
			c-0.03,0.49-0.06,0.97-0.08,1.45c-1.66,0.12-3.31,0.24-4.97,0.4c1.65,0.15,3.29,0.28,4.93,0.4c-0.03,1.35-0.01,2.69,0.14,4.03
			c0.33,3.67,1.1,7.33,2.33,10.88c-1.78,0.13-3.55,0.28-5.33,0.45c1.89,0.18,3.78,0.34,5.67,0.48c0.05,0.15,0.11,0.3,0.16,0.45
			c1.53,3.98,3.51,7.86,5.87,11.57c0.56,0.9,1.14,1.79,1.74,2.66c-2.08,0.16-4.15,0.36-6.23,0.6c2.37,0.28,4.74,0.5,7.12,0.68
			c1.64,2.33,3.41,4.59,5.27,6.78c2.12,2.54,4.37,4.98,6.72,7.34c-2.5,0.21-4.99,0.51-7.48,0.97c3.2,0.57,6.41,0.9,9.62,1.14
			c0.14,0.14,0.27,0.27,0.41,0.4c3.25,3.17,6.71,6.15,10.23,9.01c0.88,0.71,1.77,1.42,2.66,2.1l1.33,0.99l1.45,1.04
			c2.05,1.49,3.95,3.04,5.83,4.63c1.88,1.59,3.72,3.22,5.5,4.9c1.78,1.69,3.51,3.43,5.2,5.2c1.69,1.78,3.31,3.62,4.88,5.51
			c1.58,1.88,3.1,3.81,4.52,5.82c2.88,3.99,5.48,8.2,7.63,12.64c2.14,4.44,3.85,9.1,4.85,13.91c1.02,4.79,1.31,9.73,0.68,14.47
			c-0.51-3.73-1.45-7.3-2.7-10.7c0.49-0.04,0.98-0.08,1.47-0.13c-0.53-0.05-1.05-0.1-1.57-0.14c-1.94-5.19-4.62-10.02-7.73-14.49
			c-0.18-0.25-0.35-0.5-0.53-0.75c1.29-0.1,2.57-0.23,3.85-0.37c-1.47-0.16-2.94-0.3-4.41-0.42c-3.83-5.28-8.24-10.11-12.96-14.62
			c1.85-0.18,3.7-0.41,5.54-0.72c-2.42-0.4-4.84-0.68-7.26-0.89c-0.88-0.82-1.79-1.63-2.69-2.44c-3.44-3.02-7.03-5.89-10.7-8.61
			c-1.84-1.35-3.72-2.64-5.56-3.87l-1.48-0.96l-1.57-1.05c-1.03-0.71-2.03-1.42-3.03-2.16c-3.99-2.92-7.75-6.08-11.41-9.4
			c-3.62-3.36-7.07-6.93-10.31-10.72c-3.2-3.83-6.19-7.89-8.82-12.24c-2.59-4.37-4.87-9.01-6.5-13.95
			c-1.6-4.96-2.63-10.21-2.67-15.52C1093.86,1345.43,1094.11,1342.78,1094.48,1340.18"/>
		<path class="st2" d="M1182.32,1461.56c-0.03-0.1-0.07-0.19-0.1-0.27c0.53,0.05,1.05,0.1,1.57,0.14
			C1183.3,1461.48,1182.81,1461.52,1182.32,1461.56"/>
		<path class="st2" d="M1173.95,1446.04c-0.19-0.27-0.38-0.53-0.57-0.79c1.47,0.12,2.94,0.26,4.41,0.42
			C1176.52,1445.8,1175.24,1445.93,1173.95,1446.04"/>
		<path class="st2" d="M1160.42,1430.62c-0.57-0.54-1.14-1.08-1.72-1.61c2.42,0.21,4.84,0.49,7.26,0.89
			C1164.12,1430.21,1162.27,1430.44,1160.42,1430.62"/>
		<path class="st2" d="M1129.84,1391.64c-3.21-0.24-6.42-0.57-9.62-1.14c2.49-0.45,4.98-0.75,7.48-0.97
			C1128.4,1390.24,1129.12,1390.95,1129.84,1391.64"/>
		<path class="st2" d="M1127.33,1296.29c-0.6-0.11-1.2-0.24-1.8-0.38c0.86-0.21,1.72-0.38,2.57-0.52
			C1127.84,1295.69,1127.58,1295.99,1127.33,1296.29"/>
		<path class="st2" d="M1115.4,1312.08c-1.19-0.12-2.38-0.25-3.57-0.4c1.38-0.18,2.76-0.34,4.15-0.47
			C1115.79,1311.5,1115.59,1311.79,1115.4,1312.08"/>
		<path class="st2" d="M1115.7,1375.4c-2.37-0.18-4.74-0.4-7.12-0.68c2.07-0.25,4.15-0.44,6.23-0.6
			C1115.1,1374.56,1115.39,1374.98,1115.7,1375.4"/>
		<path class="st2" d="M1106.7,1358.51c0.11,0.31,0.23,0.62,0.34,0.93c-1.89-0.14-3.79-0.29-5.67-0.48
			C1103.14,1358.79,1104.92,1358.64,1106.7,1358.51"/>
		<path class="st2" d="M1107.38,1327.84c-1.48-0.12-2.96-0.25-4.43-0.4c1.58-0.16,3.16-0.3,4.74-0.42
			C1107.58,1327.29,1107.48,1327.56,1107.38,1327.84"/>
		<path class="st2" d="M1104.23,1343.6c-1.64-0.12-3.29-0.25-4.93-0.4c1.66-0.15,3.31-0.28,4.97-0.4
			C1104.25,1343.07,1104.24,1343.33,1104.23,1343.6"/>
		<path class="st2" d="M1134.54,1414.71c-3.7,4.66-7.49,9.02-11.1,13.46c-3.62,4.43-7.09,8.89-10.28,13.51
			c-3.19,4.62-6.08,9.38-8.48,14.43c-2.41,5.05-4.27,10.35-5.61,16.16c-1.31-5.84-0.72-12.09,0.97-17.91
			c1.71-5.84,4.5-11.32,7.93-16.26c3.43-4.95,7.47-9.41,11.91-13.36C1124.35,1420.82,1129.2,1417.34,1134.54,1414.71"/>
		<path class="st2" d="M1099.09,1219.65c1.32,9.56,5.37,18.08,10.61,25.62c5.28,7.54,11.7,14.22,18.63,20.29
			c3.46,3.04,7.08,5.91,10.78,8.63c1.84,1.35,3.76,2.66,5.59,3.86l1.55,1.01l1.56,1.06c1.03,0.71,2.04,1.44,3.04,2.17
			c7.95,5.93,15.29,12.64,21.76,20.34c3.2,3.87,6.18,7.98,8.79,12.38c2.58,4.42,4.81,9.13,6.36,14.15
			c1.54,5.01,2.49,10.31,2.43,15.67c0,2.67-0.24,5.34-0.71,7.94c-0.46,2.6-1.13,5.14-1.97,7.6c-0.81,2.46-1.83,4.83-2.97,7.11
			c-1.13,2.29-2.37,4.49-3.75,6.59c-2.71,4.23-5.83,8.1-9.18,11.69c-6.73,7.15-14.35,13.25-22.6,18.2
			c6.63-6.96,12.85-14.13,18.07-21.84c5.21-7.67,9.49-15.89,11.52-24.37c0.53-2.11,0.88-4.24,1.06-6.36
			c0.22-2.12,0.27-4.22,0.11-6.31c-0.29-4.18-1.17-8.33-2.64-12.35c-1.45-4.03-3.38-7.95-5.74-11.69c-2.3-3.76-4.96-7.37-7.86-10.82
			c-2.86-3.49-6-6.78-9.27-9.96c-3.25-3.21-6.72-6.21-10.25-9.11c-0.89-0.72-1.78-1.43-2.68-2.12l-1.34-1.02l-1.4-1.01
			c-2.1-1.5-3.99-3.05-5.9-4.64c-1.89-1.6-3.75-3.22-5.55-4.91c-1.78-1.71-3.54-3.43-5.24-5.22c-1.71-1.77-3.34-3.63-4.93-5.52
			c-1.58-1.9-3.13-3.82-4.56-5.84c-2.9-4-5.54-8.22-7.71-12.68c-2.16-4.46-3.89-9.15-4.91-13.98
			C1098.75,1229.38,1098.46,1224.41,1099.09,1219.65"/>
		<path class="st2" d="M1155.38,1390.71c0,0.29-0.03,0.58-0.08,0.85c2.9-0.23,5.8-0.55,8.7-1.07c-2.93-0.53-5.86-0.84-8.8-1.08
			C1155.32,1389.83,1155.38,1390.26,1155.38,1390.71"/>
		<path class="st2" d="M1120.21,1390.49c2.49-0.45,4.98-0.75,7.48-0.97c1.16-0.11,2.31-0.2,3.47-0.27c3.65-0.23,7.3-0.34,10.94-0.34
			c1.11,0,2.23,0.01,3.35,0.04c-0.2,0.55-0.31,1.14-0.31,1.75c0,0.46,0.06,0.9,0.18,1.33c-1.07,0.02-2.14,0.03-3.21,0.03
			c-3.65,0-7.3-0.11-10.94-0.34c-0.44-0.03-0.88-0.06-1.33-0.1C1126.63,1391.4,1123.42,1391.07,1120.21,1390.49"/>
		<path class="st2" d="M1118.26,1429.9c2.28,0.38,4.56,0.65,6.85,0.86c-0.01-0.13-0.02-0.25-0.02-0.38c0-0.47,0.07-0.92,0.19-1.35
			C1122.93,1429.24,1120.6,1429.51,1118.26,1429.9"/>
		<path class="st2" d="M1134.96,1428.45c2.38-0.08,4.77-0.12,7.15-0.12c3.98,0.01,7.95,0.11,11.93,0.34
			c1.55,0.1,3.11,0.21,4.67,0.35c2.42,0.21,4.84,0.49,7.25,0.89c-1.84,0.31-3.69,0.54-5.54,0.72c-2.13,0.23-4.26,0.38-6.39,0.51
			c-3.98,0.23-7.95,0.34-11.93,0.34c-2.29,0-4.58-0.04-6.87-0.12c0.06-0.32,0.1-0.64,0.1-0.99
			C1135.33,1429.69,1135.19,1429.04,1134.96,1428.45"/>
		<path class="st2" d="M1166.75,1445.67c0-0.31-0.03-0.61-0.09-0.9c2.24,0.13,4.48,0.28,6.72,0.47c1.47,0.12,2.94,0.26,4.41,0.42
			c-1.28,0.14-2.56,0.27-3.85,0.37c-2.43,0.22-4.86,0.39-7.29,0.53C1166.72,1446.27,1166.75,1445.97,1166.75,1445.67"/>
		<path class="st2" d="M1124.27,1446.89c2.97,0.15,5.95,0.17,8.92,0.26l8.92,0.08l8.92-0.09c1.89-0.05,3.77-0.09,5.66-0.14
			c-0.12-0.43-0.19-0.88-0.19-1.34c0-0.47,0.07-0.92,0.19-1.35c-1.89-0.05-3.77-0.09-5.66-0.14l-8.92-0.09l-8.92,0.08
			c-2.97,0.09-5.95,0.11-8.92,0.26c-5.95,0.23-11.9,0.57-17.85,1.23C1112.37,1446.32,1118.32,1446.66,1124.27,1446.89"/>
		<path class="st2" d="M1108.98,1460.77c-2.85,0.18-5.7,0.38-8.55,0.65c2.79,0.26,5.58,0.47,8.37,0.64
			C1108.8,1461.62,1108.87,1461.19,1108.98,1460.77"/>
		<path class="st2" d="M1118.71,1460.29c0.86-0.03,1.7-0.07,2.56-0.1c3.47-0.14,6.94-0.17,10.42-0.26l10.42-0.08l10.42,0.08
			c3.47,0.09,6.95,0.12,10.42,0.27c6.42,0.21,12.85,0.53,19.27,1.08c0.53,0.05,1.05,0.1,1.57,0.14c-0.49,0.05-0.98,0.09-1.47,0.13
			c-6.45,0.57-12.91,0.88-19.37,1.09c-3.47,0.14-6.95,0.18-10.42,0.26l-10.42,0.09l-10.42-0.08c-3.48-0.09-6.95-0.12-10.42-0.26
			c-0.75-0.03-1.51-0.06-2.25-0.09c0.01-0.16,0.03-0.32,0.03-0.49C1119.05,1461.45,1118.93,1460.85,1118.71,1460.29"/>
		<path class="st2" d="M1108.59,1374.73c2.07-0.25,4.15-0.44,6.23-0.6c1.6-0.13,3.2-0.24,4.8-0.33c-0.12,0.43-0.18,0.88-0.18,1.35
			c0,0.18,0.01,0.35,0.02,0.52c-1.25-0.07-2.5-0.16-3.74-0.25C1113.33,1375.22,1110.96,1375.01,1108.59,1374.73"/>
		<path class="st2" d="M1129.67,1375.14c0,0.33-0.03,0.66-0.09,0.97c1.38,0.04,2.77,0.06,4.15,0.11l8.38,0.08l8.38-0.09
			c2.79-0.08,5.59-0.12,8.38-0.26c5.59-0.23,11.17-0.57,16.76-1.23c-5.59-0.65-11.17-0.99-16.76-1.23
			c-2.79-0.15-5.59-0.18-8.38-0.26l-8.38-0.09l-8.38,0.08c-1.46,0.05-2.93,0.08-4.39,0.11
			C1129.55,1373.91,1129.67,1374.51,1129.67,1375.14"/>
		<path class="st2" d="M1172.23,1358.97c0,0.27-0.03,0.54-0.07,0.8c3.57-0.2,7.13-0.45,10.7-0.8c-3.57-0.34-7.13-0.59-10.7-0.8
			C1172.2,1358.43,1172.23,1358.69,1172.23,1358.97"/>
		<path class="st2" d="M1101.36,1358.96c1.78-0.17,3.55-0.32,5.33-0.45c5.01-0.38,10.03-0.61,15.04-0.78
			c3.4-0.14,6.79-0.17,10.18-0.26l10.19-0.08l10.19,0.09c3.28,0.08,6.56,0.12,9.84,0.25c-0.1,0.4-0.16,0.81-0.16,1.24
			c0,0.43,0.06,0.84,0.16,1.24c-3.28,0.14-6.56,0.17-9.84,0.25l-10.19,0.08l-10.19-0.08c-3.4-0.09-6.79-0.12-10.18-0.26
			c-4.9-0.17-9.8-0.39-14.7-0.75C1105.15,1359.31,1103.25,1359.15,1101.36,1358.96"/>
		<path class="st2" d="M1099.29,1343.2c1.66-0.15,3.31-0.28,4.97-0.4c1.05-0.08,2.09-0.14,3.14-0.21c-0.02,0.2-0.04,0.4-0.04,0.61
			s0.01,0.41,0.04,0.61c-1.05-0.07-2.11-0.14-3.17-0.21C1102.58,1343.48,1100.94,1343.35,1099.29,1343.2"/>
		<path class="st2" d="M1117.6,1343.2c0,0.38-0.05,0.75-0.13,1.11c1.07,0.04,2.15,0.08,3.22,0.12c3.57,0.15,7.14,0.17,10.7,0.26
			l10.71,0.08l10.7-0.09c3.57-0.09,7.14-0.12,10.7-0.26c7.14-0.23,14.27-0.57,21.41-1.23c-7.14-0.65-14.27-0.99-21.41-1.23
			c-3.57-0.15-7.14-0.18-10.7-0.26l-10.7-0.09l-10.71,0.08c-3.57,0.09-7.14,0.12-10.7,0.26c-1.07,0.03-2.15,0.08-3.22,0.12
			C1117.56,1342.45,1117.6,1342.82,1117.6,1343.2"/>
		<path class="st2" d="M1102.95,1327.44c1.58-0.16,3.16-0.3,4.74-0.42c4.94-0.39,9.89-0.63,14.84-0.81
			c3.27-0.14,6.53-0.17,9.79-0.26l9.79-0.08l9.79,0.08c2.61,0.07,5.23,0.11,7.84,0.19c-0.11,0.42-0.17,0.85-0.17,1.3
			c0,0.45,0.06,0.88,0.17,1.29c-2.61,0.09-5.23,0.12-7.84,0.19l-9.79,0.09l-9.79-0.08c-3.27-0.09-6.53-0.12-9.79-0.26
			c-5.05-0.18-10.1-0.42-15.15-0.83C1105.9,1327.72,1104.42,1327.59,1102.95,1327.44"/>
		<path class="st2" d="M1169.82,1327.44c0,0.29-0.03,0.58-0.08,0.86c3.85-0.21,7.69-0.48,11.54-0.86
			c-3.85-0.38-7.69-0.65-11.54-0.86C1169.79,1326.86,1169.82,1327.14,1169.82,1327.44"/>
		<path class="st2" d="M1111.83,1311.68c1.38-0.18,2.76-0.34,4.15-0.47c0.86-0.08,1.72-0.17,2.59-0.23
			c-0.05,0.27-0.08,0.55-0.08,0.83c0,0.19,0.01,0.38,0.03,0.57c-1.04-0.09-2.08-0.18-3.12-0.29
			C1114.21,1311.97,1113.02,1311.83,1111.83,1311.68"/>
		<path class="st2" d="M1128.74,1311.8c0,0.4-0.05,0.79-0.14,1.17c4.5,0.18,9.01,0.29,13.51,0.28c5.05,0,10.09-0.12,15.14-0.35
			c5.05-0.23,10.09-0.57,15.14-1.23c-5.05-0.65-10.09-0.99-15.14-1.23c-5.05-0.23-10.09-0.35-15.14-0.35
			c-4.53-0.01-9.05,0.1-13.58,0.28C1128.66,1310.83,1128.74,1311.31,1128.74,1311.8"/>
		<path class="st2" d="M1145.78,1295.91c0,0.53-0.08,1.03-0.23,1.51c1.62-0.05,3.23-0.14,4.85-0.28c2.76-0.24,5.52-0.58,8.29-1.24
			c-2.76-0.65-5.53-0.99-8.29-1.24c-1.62-0.13-3.23-0.22-4.85-0.28C1145.7,1294.88,1145.78,1295.39,1145.78,1295.91"/>
		<path class="st2" d="M1125.53,1295.91c0.85-0.21,1.72-0.38,2.57-0.52l0.01-0.01c1.9-0.33,3.8-0.54,5.71-0.71
			c0.64-0.05,1.27-0.1,1.91-0.14c-0.12,0.44-0.19,0.9-0.19,1.38c0,0.48,0.07,0.94,0.19,1.38c-0.64-0.04-1.27-0.09-1.91-0.14
			c-2.16-0.19-4.33-0.45-6.49-0.86C1126.73,1296.18,1126.13,1296.05,1125.53,1295.91"/>
		<path class="st2" d="M1113.87,1256.5c3.02,0.42,6.03,0.7,9.05,0.92c-0.05-0.3-0.09-0.61-0.09-0.92s0.03-0.62,0.09-0.92
			C1119.9,1255.8,1116.88,1256.08,1113.87,1256.5"/>
		<path class="st2" d="M1133.07,1256.5c0-0.49-0.08-0.97-0.21-1.43c3.09-0.1,6.17-0.14,9.25-0.14c4.71,0.01,9.42,0.1,14.13,0.35
			c3.53,0.17,7.05,0.41,10.57,0.79c1.18,0.12,2.36,0.27,3.55,0.43c-1.41,0.2-2.83,0.36-4.24,0.51c-3.29,0.34-6.58,0.56-9.88,0.72
			c-4.71,0.25-9.42,0.35-14.13,0.36c-3.08-0.01-6.16-0.05-9.25-0.15C1133,1257.48,1133.07,1257,1133.07,1256.5"/>
		<path class="st2" d="M1171.99,1240.74c0-0.23-0.02-0.45-0.05-0.68c1.67,0.11,3.33,0.23,5,0.38c1.08,0.09,2.15,0.19,3.22,0.3
			c-1.19,0.12-2.39,0.23-3.58,0.33c-1.55,0.14-3.09,0.25-4.64,0.35C1171.97,1241.2,1171.99,1240.97,1171.99,1240.74"/>
		<path class="st2" d="M1123.09,1241.97c3.17,0.15,6.34,0.17,9.51,0.26l9.51,0.08l9.51-0.09c3.17-0.09,6.34-0.12,9.51-0.26
			c0.25-0.01,0.5-0.02,0.75-0.03c-0.09-0.38-0.15-0.78-0.15-1.19c0-0.41,0.05-0.81,0.15-1.19c-0.25-0.01-0.5-0.02-0.75-0.03
			c-3.17-0.15-6.34-0.18-9.51-0.26l-9.51-0.09l-9.51,0.08c-3.17,0.09-6.34,0.12-9.51,0.26c-6.34,0.23-12.68,0.57-19.02,1.23
			C1110.41,1241.4,1116.75,1241.74,1123.09,1241.97"/>
		<path class="st2" d="M1104.43,1224.54c-1.78,0.13-3.56,0.27-5.34,0.43c1.78,0.16,3.56,0.31,5.34,0.43
			c-0.01-0.14-0.02-0.29-0.02-0.43C1104.41,1224.83,1104.42,1224.69,1104.43,1224.54"/>
		<path class="st2" d="M1114.66,1224.98c0-0.34-0.03-0.68-0.1-1c2.02-0.09,4.03-0.16,6.04-0.23c3.59-0.14,7.17-0.17,10.76-0.26
			l10.75-0.08l10.76,0.09c3.59,0.08,7.17,0.12,10.76,0.26c6.64,0.22,13.3,0.53,19.95,1.09c0.52,0.04,1.04,0.09,1.56,0.14
			c-0.55,0.05-1.09,0.1-1.64,0.14c-6.62,0.56-13.25,0.87-19.87,1.08c-3.59,0.14-7.17,0.18-10.76,0.26l-10.76,0.09l-10.75-0.08
			c-3.59-0.09-7.17-0.12-10.76-0.26c-2.01-0.07-4.02-0.14-6.04-0.23C1114.62,1225.65,1114.66,1225.32,1114.66,1224.98"/>
		<path class="st2" d="M1112.48,1346.75c1.96,0,3.55-1.59,3.55-3.55c0-1.96-1.59-3.55-3.55-3.55c-1.96,0-3.55,1.59-3.55,3.55
			C1108.93,1345.16,1110.52,1346.75,1112.48,1346.75"/>
		<path class="st2" d="M1164.7,1330.99c1.96,0,3.55-1.59,3.55-3.55c0-1.96-1.59-3.55-3.55-3.55s-3.55,1.59-3.55,3.55
			C1161.15,1329.4,1162.74,1330.99,1164.7,1330.99"/>
		<path class="st2" d="M1123.61,1315.35c1.96,0,3.55-1.59,3.55-3.55c0-1.96-1.59-3.55-3.55-3.55s-3.55,1.59-3.55,3.55
			C1120.07,1313.76,1121.66,1315.35,1123.61,1315.35"/>
		<path class="st2" d="M1140.66,1299.46c1.96,0,3.55-1.59,3.55-3.55c0-1.96-1.59-3.55-3.55-3.55c-1.96,0-3.55,1.59-3.55,3.55
			C1137.11,1297.87,1138.7,1299.46,1140.66,1299.46"/>
		<path class="st2" d="M1167.11,1362.51c1.96,0,3.55-1.59,3.55-3.55c0-1.96-1.59-3.55-3.55-3.55c-1.96,0-3.55,1.59-3.55,3.55
			C1163.56,1360.92,1165.15,1362.51,1167.11,1362.51"/>
		<path class="st2" d="M1124.55,1378.69c1.96,0,3.55-1.59,3.55-3.55c0-1.96-1.59-3.55-3.55-3.55c-1.96,0-3.55,1.59-3.55,3.55
			C1121,1377.1,1122.59,1378.69,1124.55,1378.69"/>
		<path class="st2" d="M1150.26,1394.25c1.96,0,3.55-1.59,3.55-3.55c0-1.96-1.59-3.55-3.55-3.55s-3.55,1.59-3.55,3.55
			C1146.71,1392.66,1148.31,1394.25,1150.26,1394.25"/>
		<path class="st2" d="M1130.21,1433.92c1.96,0,3.55-1.59,3.55-3.55c0-1.96-1.59-3.55-3.55-3.55s-3.55,1.59-3.55,3.55
			C1126.66,1432.33,1128.25,1433.92,1130.21,1433.92"/>
		<path class="st2" d="M1161.63,1449.21c1.96,0,3.55-1.59,3.55-3.55c0-1.96-1.59-3.55-3.55-3.55c-1.96,0-3.55,1.59-3.55,3.55
			C1158.08,1447.62,1159.67,1449.21,1161.63,1449.21"/>
		<path class="st2" d="M1113.92,1465.63c1.96,0,3.55-1.59,3.55-3.55s-1.59-3.55-3.55-3.55c-1.96,0-3.55,1.59-3.55,3.55
			S1111.97,1465.63,1113.92,1465.63"/>
		<path class="st2" d="M1127.95,1260.05c1.96,0,3.55-1.59,3.55-3.55c0-1.96-1.59-3.55-3.55-3.55s-3.55,1.59-3.55,3.55
			C1124.4,1258.46,1125.99,1260.05,1127.95,1260.05"/>
		<path class="st2" d="M1166.86,1244.29c1.96,0,3.55-1.59,3.55-3.55c0-1.96-1.59-3.55-3.55-3.55c-1.96,0-3.55,1.59-3.55,3.55
			C1163.32,1242.7,1164.91,1244.29,1166.86,1244.29"/>
		<path class="st2" d="M1109.53,1228.52c1.96,0,3.55-1.59,3.55-3.55c0-1.96-1.59-3.55-3.55-3.55s-3.55,1.59-3.55,3.55
			C1105.99,1226.93,1107.58,1228.52,1109.53,1228.52"/>
		<path class="st2" d="M1369.36,1232.71l0.2-0.49c-0.38-0.2-0.78-0.41-1.16-0.61l-4.4,7.09
			C1366.43,1237.4,1368.31,1235.29,1369.36,1232.71 M881.84,1205.67l0.58,0.93c0.26-0.12,0.55-0.17,0.84-0.23
			c0.12,0,0.23-0.03,0.35-0.06c0.12-0.03,0.26-0.03,0.38-0.03c0.06-0.03,0.14-0.03,0.2-0.03c0.26-0.03,0.52-0.03,0.81-0.03
			s0.55,0,0.84,0.03c0.29,0.03,0.58,0.09,0.9,0.12c0.2,0.06,0.41,0.11,0.61,0.17c0.41,0.09,0.81,0.26,1.16,0.4
			c0.2,0.09,0.41,0.17,0.58,0.29c0.23,0.12,0.46,0.26,0.7,0.43c0.23,0.14,0.46,0.32,0.67,0.49c0.2,0.17,0.4,0.35,0.61,0.55
			c0.2,0.2,0.38,0.41,0.55,0.61c0.17,0.2,0.32,0.43,0.49,0.64c0.17,0.26,0.29,0.46,0.43,0.72c0.12,0.17,0.17,0.38,0.26,0.55
			c0.17,0.38,0.32,0.78,0.43,1.19c0.06,0.2,0.12,0.41,0.15,0.61c0.03,0.03,0.03,0.03,0,0.03c0.06,0.29,0.11,0.58,0.14,0.87
			c0.06,0.61,0.06,1.19,0,1.77c0,0.09-0.03,0.15-0.03,0.23c-0.03,0.09-0.03,0.17-0.06,0.23c0,0.12-0.03,0.23-0.06,0.35
			c-0.09,0.55-0.26,1.07-0.49,1.59c-0.11,0.26-0.23,0.52-0.38,0.75c-0.06,0.17-0.17,0.35-0.26,0.49l-0.03,0.03
			c-0.09,0.14-0.17,0.26-0.29,0.41c-0.2,0.32-0.46,0.64-0.75,0.93l9.21,14.88l0.35,0.55l0.06,0.09l2.84,4.6l2.08,3.36l2.55,4.08
			l2.95,4.78l1.56,2.52l0.23,0.38l196.86,317.73l8.68,14.01c0-0.46,0.06-0.93,0.14-1.39c0.03-0.14,0.06-0.32,0.12-0.49
			c-0.03-0.03,0-0.03,0.03-0.06c0-0.09,0-0.17,0.03-0.23c0.03-0.09,0.06-0.17,0.09-0.29c0-0.06,0.03-0.11,0.06-0.17
			c0.06-0.17,0.12-0.35,0.17-0.49c0.06-0.14,0.14-0.32,0.23-0.46c0.06-0.14,0.14-0.29,0.23-0.43c0.23-0.46,0.49-0.87,0.81-1.27
			c0.52-0.58,1.04-1.1,1.65-1.53c0-0.03,0.03-0.03,0.03-0.03c0.29-0.2,0.58-0.41,0.87-0.58c0,0,0.03-0.03,0.06-0.03
			c0.32-0.14,0.64-0.32,0.96-0.46c0.14-0.06,0.32-0.11,0.46-0.17c2.23-0.72,4.69-0.55,6.83,0.58c0.43,0.23,0.84,0.49,1.24,0.78
			l-21.48-34.62l-185.43-299.28l-5.59-9.03l-4.34-6.98l-0.4-0.67l-0.84-1.33l-19.48-31.47c-0.29-0.49-0.52-0.98-0.64-1.48
			c-0.23,0.15-0.46,0.29-0.72,0.41c-0.12,0.06-0.23,0.09-0.35,0.15c-0.12,0.06-0.26,0.09-0.38,0.11c-0.12,0.06-0.29,0.09-0.43,0.12
			c-0.03,0-0.09,0.03-0.14,0.03c-0.2,0.06-0.38,0.09-0.58,0.12h-0.23c-0.29,0.03-0.55,0.06-0.84,0.03h-0.23
			c-0.17-0.03-0.35-0.03-0.52-0.06l-0.43-0.09h-0.06c-0.2,0.06-0.38,0.09-0.58,0.12h-0.23c-0.29,0.03-0.55,0.06-0.84,0.03h-0.23
			c-0.17-0.03-0.35-0.03-0.52-0.06c-0.17-0.03-0.35-0.06-0.52-0.11c-0.17-0.03-0.32-0.06-0.49-0.12c-0.32-0.11-0.64-0.26-0.95-0.41
			c-0.06-0.06-0.14-0.09-0.23-0.14c-0.52-0.29-1.01-0.64-1.42-1.07c-0.14-0.15-0.29-0.32-0.41-0.46c-0.14-0.17-0.29-0.32-0.38-0.49
			c-0.14-0.17-0.26-0.35-0.35-0.55c-0.09-0.2-0.2-0.38-0.26-0.58c-0.17-0.41-0.32-0.81-0.38-1.24c-0.03-0.09-0.06-0.17-0.06-0.26
			c-0.03-0.12-0.03-0.23-0.06-0.35c-0.03-0.46-0.03-0.93,0.03-1.42c0-0.2,0.03-0.38,0.09-0.58c0.03-0.2,0.09-0.43,0.14-0.64
			c0.23-0.75,0.64-1.48,1.13-2.08c0.12-0.17,0.23-0.32,0.38-0.43c0.26-0.32,0.55-0.55,0.9-0.78c0.15-0.15,0.29-0.23,0.46-0.32
			c0.17-0.11,0.35-0.2,0.52-0.29c0.17-0.11,0.35-0.2,0.55-0.26c0.17-0.09,0.35-0.14,0.55-0.17c0.58-0.17,1.19-0.26,1.79-0.26
			c0.17,0,0.38,0.03,0.55,0.03c0.12,0,0.26,0.03,0.38,0.06c0.11,0,0.23,0.03,0.32,0.06c0.06,0,0.12-0.03,0.17-0.03
			c0.12-0.03,0.26-0.03,0.38-0.03h0.09c0.32-0.06,0.67-0.09,1.01-0.09c0.17,0,0.38,0.03,0.55,0.03c0.12,0,0.26,0.03,0.38,0.06
			c0.12,0,0.23,0.03,0.32,0.06c0.35,0.06,0.7,0.15,1.01,0.26c0.17,0.06,0.35,0.14,0.52,0.23c0.03,0,0.09,0.06,0.15,0.06
			c0.17,0.12,0.35,0.2,0.52,0.32c0.41,0.26,0.78,0.55,1.13,0.9c0.15,0.11,0.23,0.26,0.38,0.38c0.06,0.09,0.12,0.15,0.17,0.23
			c0.49,0.64,0.87,1.33,1.1,2.11c0.03,0.09,0.06,0.17,0.06,0.26c0.06,0.12,0.09,0.23,0.09,0.38c0.78-0.41,1.68-0.64,2.63-0.64h10.34
			c-1.68-1.01-2.89-2.75-3.21-4.75c-0.7-4.66,3.24-8.57,7.87-7.84c2.87,0.43,5.21,2.78,5.67,5.67c0.43,2.92-0.96,5.56-3.21,6.92
			h466.85c0.23-0.78,0.61-1.48,1.1-2.11c0.06-0.09,0.12-0.14,0.17-0.23c0.14-0.12,0.23-0.26,0.38-0.38c0.35-0.35,0.72-0.64,1.13-0.9
			c0.17-0.12,0.35-0.2,0.52-0.32c0.06,0,0.12-0.06,0.14-0.06c0.17-0.09,0.35-0.17,0.52-0.23c0.43-0.14,0.87-0.26,1.33-0.32
			c0.12-0.03,0.26-0.06,0.38-0.06c0.17,0,0.38-0.03,0.55-0.03c0.61,0,1.22,0.09,1.8,0.26c0.2,0.03,0.38,0.09,0.55,0.17
			c0.2,0.06,0.38,0.14,0.55,0.26c0.17,0.09,0.35,0.18,0.52,0.29c0.17,0.09,0.32,0.17,0.46,0.32c0.35,0.23,0.64,0.46,0.9,0.78
			c0.15,0.12,0.26,0.26,0.38,0.43c0.49,0.61,0.9,1.33,1.13,2.08c0.06,0.2,0.11,0.43,0.14,0.64c0.06,0.2,0.09,0.38,0.09,0.58
			c0.06,0.49,0.06,0.96,0.03,1.42c-0.03,0.12-0.03,0.23-0.06,0.35c0,0.09-0.03,0.17-0.06,0.26c-0.06,0.43-0.2,0.84-0.38,1.24
			c-0.06,0.2-0.17,0.38-0.26,0.58c-0.09,0.2-0.2,0.38-0.35,0.55c-0.09,0.17-0.23,0.32-0.38,0.49c-0.12,0.14-0.26,0.32-0.41,0.46
			c-0.41,0.43-0.9,0.78-1.42,1.07c-0.09,0.06-0.17,0.09-0.23,0.14c-0.32,0.14-0.64,0.29-0.95,0.41c-0.17,0.06-0.32,0.09-0.49,0.12
			c-0.17,0.06-0.35,0.09-0.52,0.11c-0.17,0.03-0.35,0.03-0.52,0.06h-0.23c-0.29,0.03-0.55,0-0.84-0.03h-0.15
			c-0.09,0.17-0.17,0.38-0.29,0.55l-5.59,9h0.06h0.23c0.23-0.06,0.52-0.06,0.78-0.06c0.29,0,0.58,0,0.9,0.06
			c0.29,0.03,0.58,0.06,0.87,0.12c0.23,0.06,0.43,0.09,0.64,0.14c0.41,0.11,0.81,0.26,1.19,0.43c0.2,0.09,0.38,0.17,0.58,0.29
			c0.23,0.12,0.46,0.26,0.69,0.43c0.23,0.15,0.46,0.32,0.67,0.49c0.23,0.17,0.43,0.38,0.64,0.55c0.17,0.2,0.38,0.43,0.55,0.64
			c0.17,0.2,0.35,0.43,0.49,0.67c0.17,0.23,0.32,0.46,0.43,0.72c0.12,0.18,0.2,0.38,0.29,0.55c0.17,0.38,0.32,0.78,0.43,1.19
			c0.06,0.2,0.12,0.4,0.14,0.64v0.03c0.06,0.29,0.12,0.58,0.15,0.87c0.06,0.61,0.06,1.22,0,1.8c0,0.09-0.03,0.14-0.03,0.23
			c-0.03,0.09-0.03,0.17-0.06,0.23c0,0.14-0.03,0.23-0.06,0.35c-0.09,0.58-0.26,1.1-0.52,1.65c-0.09,0.26-0.2,0.49-0.35,0.75
			c-0.09,0.15-0.17,0.35-0.29,0.49h-0.03c-0.06,0.18-0.17,0.29-0.26,0.43c-0.26,0.32-0.49,0.64-0.81,0.96l-0.2,0.2
			c-0.32,0.32-0.72,0.64-1.1,0.9c-0.15,0.09-0.29,0.17-0.43,0.26c0,0.06-0.03,0.06-0.06,0.06c-0.06,0.06-0.12,0.09-0.17,0.12h-0.03
			c-0.06,0.03-0.14,0.09-0.23,0.14l-0.17,0.09c-0.14,0.09-0.32,0.15-0.46,0.2c-0.17,0.09-0.32,0.14-0.49,0.17
			c-0.17,0.06-0.32,0.11-0.46,0.17c-0.49,0.15-0.98,0.23-1.51,0.29c-0.75,0.06-1.51,0.06-2.23-0.06h-0.03
			c-0.35-0.06-0.7-0.14-1.04-0.23h-0.06c-0.32-0.11-0.67-0.23-0.98-0.35c-0.14-0.06-0.32-0.15-0.46-0.2c-2-1.01-3.56-2.78-4.31-4.95
			l-8.4,13.61l-4.4,7.09l-5.65,9.12l-184.93,298.47l-26.2,42.24c-1.1,1.77-2.89,2.78-4.98,2.78s-3.91-1.01-5.01-2.78l-1.51-2.43
			c0.06,0.17,0.09,0.32,0.09,0.46c0.03,0.23,0.06,0.49,0.09,0.72v0.75c0,0.2,0,0.41-0.03,0.61c0,0.26-0.03,0.52-0.09,0.78
			c0,0.03-0.03,0.06-0.03,0.11c-0.06,0.26-0.12,0.52-0.2,0.75c-0.14,0.55-0.35,1.07-0.61,1.56c-0.12,0.26-0.26,0.52-0.46,0.75
			c-0.06,0.09-0.11,0.2-0.2,0.29c-0.06,0.11-0.14,0.2-0.2,0.32c-0.06,0.06-0.12,0.09-0.15,0.14c-0.17,0.2-0.35,0.41-0.55,0.61
			c-0.2,0.2-0.43,0.41-0.67,0.58c-0.23,0.2-0.46,0.38-0.72,0.55c-0.17,0.12-0.35,0.23-0.55,0.35c-0.38,0.2-0.75,0.38-1.13,0.52
			c-0.2,0.09-0.41,0.14-0.61,0.2c-0.29,0.09-0.52,0.14-0.81,0.2c-0.29,0.06-0.55,0.09-0.84,0.12c-0.26,0.03-0.55,0.03-0.84,0.06
			c-0.26-0.03-0.55-0.03-0.84-0.06c-0.26-0.03-0.52-0.06-0.81-0.12c-0.26-0.06-0.55-0.11-0.81-0.2c-0.2-0.06-0.41-0.12-0.61-0.2
			c-0.2-0.09-0.43-0.17-0.64-0.26l0.61,0.96c2.66,4.28,6.6,7.41,11.2,8.94c0.06-0.09,0.12-0.17,0.17-0.26
			c0.12-0.14,0.23-0.29,0.32-0.41c0.06-0.06,0.12-0.12,0.17-0.17c0.17-0.23,0.41-0.41,0.61-0.58c0.06-0.06,0.12-0.12,0.17-0.15
			c0.17-0.11,0.32-0.23,0.49-0.35c0.17-0.12,0.35-0.2,0.49-0.29c0.12-0.09,0.23-0.15,0.38-0.17c0.12-0.06,0.23-0.12,0.35-0.17
			c0.26-0.09,0.52-0.17,0.78-0.2c0.52-0.14,1.01-0.2,1.53-0.2c1.68,0,3.36,0.64,4.63,1.91c0.14,0.14,0.26,0.26,0.35,0.41
			c0.06,0.06,0.12,0.09,0.17,0.17c0.09,0.12,0.17,0.26,0.26,0.38c0.09,0.12,0.17,0.26,0.23,0.38c0.09,0.14,0.17,0.26,0.23,0.41
			c5.65-1.19,10.57-4.6,13.69-9.64l14.24-22.99l197.9-319.38l3.62-5.91l7.24-11.64l19.25-31.09c4.14-6.66,4.34-14.73,0.52-21.6
			c-3.82-6.86-10.77-10.94-18.62-10.94h-7.9c0.06,0.26,0.12,0.52,0.17,0.78c0.67,4.43-3.1,8.16-7.5,7.47
			c-2.78-0.41-5.01-2.66-5.41-5.41c-0.17-0.98-0.12-1.97,0.14-2.84H899.96c-7.84,0-14.79,4.08-18.61,10.94
			C877.53,1190.94,877.73,1199.02,881.84,1205.67 M1164.19,1586.54c0,0.12,0,0.23-0.03,0.32c-0.06,0.72-0.29,1.45-0.61,2.08
			c-0.06,0.09-0.09,0.2-0.14,0.29c-0.12,0.2-0.2,0.38-0.35,0.58c-0.06,0.12-0.17,0.26-0.29,0.38c-0.14,0.17-0.29,0.35-0.46,0.52
			c-0.32,0.32-0.67,0.64-1.04,0.87c-2.17,1.42-5.04,1.45-7.21,0c-0.38-0.23-0.72-0.52-1.04-0.84c-0.15-0.15-0.26-0.29-0.38-0.43
			c-0.09-0.12-0.17-0.2-0.26-0.35c-0.17-0.2-0.29-0.41-0.43-0.64c-0.03-0.09-0.06-0.12-0.09-0.2c-0.29-0.49-0.46-1.04-0.58-1.59
			c-0.06-0.12-0.09-0.23-0.09-0.38c-0.03-0.14-0.06-0.29-0.06-0.43c-0.03-0.29-0.03-0.61-0.03-0.93c0.03-0.29,0.06-0.61,0.12-0.9
			c0.03-0.2,0.09-0.41,0.14-0.61c0.09-0.32,0.23-0.61,0.38-0.93c0.06-0.14,0.12-0.26,0.17-0.38c0.12-0.23,0.23-0.46,0.41-0.7
			c0.09-0.14,0.2-0.29,0.32-0.4c0.12-0.15,0.23-0.29,0.38-0.43c0.35-0.35,0.72-0.64,1.13-0.9c1.74-1.1,3.85-1.3,5.73-0.64
			c0.9,0.32,1.71,0.84,2.43,1.53c0.12,0.14,0.26,0.29,0.38,0.43c0.06,0.09,0.12,0.14,0.17,0.2c0.12,0.17,0.23,0.35,0.35,0.52
			c0.09,0.12,0.17,0.29,0.26,0.43c0.06,0.12,0.15,0.26,0.17,0.38c0.09,0.14,0.14,0.29,0.17,0.43c0.09,0.2,0.15,0.4,0.2,0.64v0.03
			c0.09,0.23,0.12,0.43,0.14,0.67c0.03,0.2,0.03,0.46,0.06,0.7C1164.22,1586.08,1164.22,1586.31,1164.19,1586.54 M1369.36,1232.71
			l0.2-0.49c-0.38-0.2-0.78-0.41-1.16-0.61l-4.4,7.09C1366.43,1237.4,1368.31,1235.29,1369.36,1232.71 M1369.36,1232.71l0.2-0.49
			c-0.38-0.2-0.78-0.41-1.16-0.61l-4.4,7.09C1366.43,1237.4,1368.31,1235.29,1369.36,1232.71"/>
		<path class="st1" d="M1053.25,1618.18c1.68,2.69,4.66,4.57,7.99,4.66c2.69,0.06,5.18-1.01,6.95-2.78c2.14-2.05,5.1-3.04,8.11-3.04
			h13.14c1.1-0.03,2,0.81,2.14,1.94c0.4,3.5,1.19,7.01,2.32,10.39l-0.52,0.2c-2.75,1.16-5.85,1.22-8.69,0.2
			c-2-0.69-4.28-0.69-6.4,0.17c-2.81,1.19-4.69,3.59-5.33,6.34c-0.26,1.22-0.12,2.52,0.35,3.68l1.25,3.01
			c0.43,0.98,1.04,1.88,1.91,2.49c2.4,1.74,5.62,2.29,8.48,1.19c2.37-0.93,4.11-2.72,5.04-4.86c1.1-2.55,3.3-4.46,5.82-5.5
			l0.78-0.35c1.65,3.33,3.71,6.51,6.11,9.47c0.49,0.58,0.46,1.45-0.06,1.97l-9.52,9.52c-2.29,2.26-5.33,3.62-8.54,3.79
			c-2.29,0.12-4.55,1.04-6.28,2.78c-2.37,2.37-3.24,5.65-2.64,8.69c0.23,1.24,0.9,2.4,1.8,3.3l2.55,2.52
			c0.78,0.81,1.8,1.45,2.9,1.71c3.07,0.69,6.48-0.12,8.89-2.37c1.97-1.88,2.95-4.4,2.98-6.89c0.06-2.98,1.45-5.79,3.53-7.87
			l9.76-9.76c0.52-0.52,1.39-0.55,1.97-0.06c2.95,2.4,6.14,4.46,9.44,6.11l-0.2,0.49c-1.13,2.75-3.24,5.01-5.96,6.28
			c-1.94,0.9-3.53,2.55-4.4,4.66c-1.16,2.78-0.81,5.82,0.67,8.16c0.67,1.1,1.71,1.91,2.87,2.4l3.04,1.25
			c0.98,0.43,2.05,0.64,3.1,0.46c2.9-0.49,5.56-2.37,6.83-5.21c1.01-2.32,0.98-4.81,0.12-6.98c-1.04-2.58-0.84-5.47,0.23-8.02
			l0.32-0.78c3.36,1.13,6.83,1.88,10.33,2.29c1.13,0.12,2,1.07,2.03,2.23v12.74c-0.03,3.24-1.22,6.31-3.36,8.71
			c-1.56,1.71-2.49,3.97-2.49,6.46c0,3.33,1.71,6.25,4.28,7.99c1.04,0.72,2.32,1.04,3.59,1.04h3.53c1.16,0,2.29-0.23,3.27-0.84
			c2.69-1.68,4.57-4.66,4.63-7.96c0.09-2.72-0.98-5.18-2.75-6.98c-2.08-2.14-3.07-5.12-3.07-8.08v-13.09c0-1.16,0.87-2.11,2.03-2.23
			c3.5-0.41,6.95-1.19,10.34-2.29l0.2,0.49c1.13,2.78,1.22,5.85,0.2,8.68c-0.72,2-0.69,4.28,0.17,6.4c1.19,2.89,3.71,4.81,6.51,5.36
			c1.19,0.23,2.37,0.09,3.47-0.38l3.04-1.27c0.99-0.41,1.88-1.01,2.49-1.88c1.74-2.4,2.26-5.62,1.16-8.48
			c-0.9-2.37-2.72-4.11-4.86-5.04c-2.55-1.07-4.43-3.27-5.5-5.85l-0.32-0.75c3.3-1.65,6.46-3.65,9.38-6.05
			c0.64-0.52,1.53-0.49,2.11,0.09l9.44,9.44c2.29,2.29,3.65,5.33,3.79,8.51c0.12,2.32,1.07,4.57,2.81,6.31
			c2.37,2.37,5.65,3.27,8.68,2.66c1.24-0.23,2.37-0.9,3.3-1.82l2.49-2.49c0.81-0.81,1.45-1.79,1.71-2.9
			c0.72-3.1-0.06-6.51-2.34-8.94c-1.88-1.94-4.37-2.92-6.89-2.95c-2.95-0.06-5.79-1.45-7.9-3.56l-9.67-9.67
			c-0.58-0.58-0.58-1.51-0.09-2.11c2.4-2.95,4.43-6.11,6.05-9.41l0.49,0.23c2.78,1.16,5.01,3.27,6.31,5.96
			c0.93,1.94,2.52,3.56,4.63,4.43c2.81,1.16,5.85,0.78,8.25-0.72c1.04-0.67,1.85-1.65,2.34-2.84l1.24-3.01
			c0.41-0.96,0.61-2.03,0.43-3.1c-0.46-2.92-2.34-5.59-5.18-6.86c-2.32-1.01-4.83-0.98-7.01-0.09c-2.58,1.01-5.47,0.81-8.02-0.26
			l-0.78-0.32c1.16-3.42,1.91-6.92,2.32-10.45c0.11-1.07,0.98-1.88,2.08-1.88h12.88c3.21,0,6.31,1.19,8.72,3.33
			c1.68,1.56,3.96,2.49,6.46,2.49c3.24,0,6.11-1.62,7.84-4.08c0.81-1.1,1.19-2.43,1.19-3.79v-3.56c0-1.13-0.23-2.29-0.84-3.24
			c-1.68-2.69-4.66-4.55-7.96-4.66c-2.75-0.03-5.21,1.04-7.01,2.78c-2.11,2.08-5.1,3.07-8.08,3.07h-13.2c-1.1,0-1.97-0.81-2.08-1.88
			c-0.41-3.56-1.19-7.03-2.32-10.45l0.52-0.23c2.75-1.13,5.85-1.22,8.66-0.2c2,0.72,4.31,0.72,6.43-0.17
			c2.81-1.16,4.69-3.56,5.33-6.31c0.26-1.22,0.12-2.52-0.35-3.68l-1.27-3.04c-0.41-0.98-1.04-1.88-1.88-2.49
			c-2.4-1.71-5.62-2.26-8.51-1.16c-2.34,0.93-4.08,2.72-5.01,4.86c-1.07,2.55-3.27,4.46-5.85,5.5l-0.75,0.32
			c-1.59-3.18-3.56-6.25-5.88-9.12c-0.61-0.78-0.58-1.91,0.12-2.61l9.21-9.21c2.29-2.29,5.33-3.62,8.54-3.79
			c2.29-0.12,4.55-1.07,6.31-2.81c2.34-2.34,3.24-5.65,2.63-8.69c-0.23-1.24-0.9-2.37-1.79-3.27l-2.55-2.52
			c-0.81-0.81-1.79-1.45-2.89-1.71c-3.07-0.7-6.51,0.09-8.92,2.37c-1.94,1.85-2.92,4.37-2.95,6.86c-0.03,2.98-1.45,5.79-3.56,7.87
			l-9.44,9.47c-0.58,0.58-1.42,0.69-2.11,0.41c-0.17-0.06-0.35-0.17-0.49-0.29c-2.87-2.32-5.9-4.26-9.12-5.85l0.2-0.49
			c1.16-2.78,3.3-5.01,6.02-6.28c1.91-0.93,3.5-2.55,4.37-4.66c1.16-2.81,0.81-5.85-0.7-8.22c-0.4-0.64-0.9-1.16-1.48-1.59
			c-0.43-0.32-0.87-0.58-1.36-0.78l-3.04-1.25c-0.98-0.41-2.06-0.61-3.1-0.43c-2.92,0.49-5.59,2.37-6.83,5.21
			c-1.01,2.32-0.95,4.81-0.11,6.95c1.04,2.58,0.84,5.47-0.23,8.05l-0.32,0.78c-3.42-1.13-6.92-1.91-10.45-2.32
			c-1.07-0.12-1.88-0.98-1.88-2.08l-0.03-12.88c0-3.21,1.22-6.31,3.36-8.69c1.56-1.71,2.46-3.99,2.46-6.46
			c0.03-3.36-1.68-6.28-4.26-8.02c-1.04-0.7-2.32-1.04-3.59-1.04h-3.59c-1.13,0-2.26,0.26-3.24,0.87c-2.66,1.68-4.52,4.66-4.63,7.96
			c-0.06,2.69,1.01,5.18,2.78,6.98c2.08,2.14,3.07,5.12,3.07,8.11v13.2c0,1.07-0.84,1.97-1.91,2.08c-3.53,0.41-7.03,1.16-10.42,2.29
			l-0.23-0.49c-1.16-2.78-1.22-5.88-0.2-8.69c0.7-2.03,0.7-4.28-0.17-6.43c-1.19-2.87-3.7-4.78-6.54-5.36
			c-1.16-0.23-2.34-0.06-3.44,0.41l-3.07,1.25c-0.46,0.2-0.93,0.46-1.36,0.78c-0.43,0.32-0.81,0.67-1.1,1.1
			c-1.74,2.4-2.29,5.62-1.16,8.51c0.9,2.37,2.69,4.11,4.86,5.01c2.55,1.1,4.43,3.3,5.47,5.85l0.35,0.78c-3.15,1.56-6.17,3.5-9,5.76
			c-0.2,0.14-0.4,0.26-0.64,0.35c-0.75,0.26-1.62,0.11-2.23-0.49l-9.09-9.09c-2.26-2.29-3.62-5.33-3.76-8.54
			c-0.12-2.29-1.07-4.55-2.81-6.31c-2.34-2.35-5.65-3.21-8.68-2.61c-1.24,0.23-2.37,0.87-3.27,1.77l-2.52,2.52
			c-0.81,0.81-1.45,1.79-1.71,2.89c-0.72,3.1,0.06,6.51,2.35,8.92c1.88,1.97,4.37,2.98,6.89,2.98c2.98,0.06,5.79,1.48,7.9,3.59
			l9.29,9.29c0.78,0.78,0.84,2,0.14,2.87c-2.26,2.84-4.17,5.85-5.73,8.97l-0.52-0.2c-2.75-1.16-4.98-3.27-6.25-5.99
			c-0.93-1.94-2.55-3.53-4.69-4.4c-2.84-1.19-5.99-0.78-8.4,0.84c-0.98,0.64-1.71,1.59-2.17,2.69l-1.27,3.07
			c-0.41,0.98-0.58,2.03-0.43,3.07c0.49,2.92,2.37,5.59,5.21,6.83c2.32,1.04,4.83,0.98,6.98,0.12c2.58-1.01,5.47-0.81,8.05,0.23
			l0.78,0.32c-1.16,3.42-1.91,6.89-2.32,10.42c-0.12,1.1-1.01,1.94-2.14,1.94h-12.82c-3.21,0-6.31-1.22-8.71-3.36
			c-1.71-1.53-3.97-2.46-6.43-2.49c-3.36,0-6.28,1.71-8.02,4.28c-0.72,1.07-1.04,2.34-1.04,3.59v3.56
			C1052.38,1616.07,1052.64,1617.23,1053.25,1618.18 M1169.95,1600.64c3.62,2.64,3.65,7.93,0.03,10.6c-2.26,1.68-5.47,1.68-7.73,0
			c-3.59-2.66-3.59-7.96,0.03-10.6C1164.54,1598.96,1167.72,1598.99,1169.95,1600.64 M1149.77,1629.39l0.09-0.52
			c0.03-0.03,0.03-0.09,0.06-0.15c0.03-0.2,0.09-0.41,0.17-0.61c0.06-0.2,0.17-0.43,0.26-0.64c0.12-0.23,0.23-0.43,0.35-0.67
			c0.14-0.2,0.29-0.38,0.43-0.61c0.14-0.17,0.29-0.35,0.46-0.52c0.26-0.26,0.52-0.49,0.84-0.72c0.23-0.17,0.49-0.32,0.78-0.46
			c0.12-0.09,0.2-0.11,0.35-0.17c0.09-0.06,0.2-0.11,0.29-0.14c0.14-0.03,0.26-0.09,0.41-0.14c0.17-0.06,0.35-0.09,0.49-0.12
			c0.35-0.09,0.67-0.14,1.01-0.17h0.58c0.26,0,0.52,0.03,0.78,0.06h0.17c0.23,0.06,0.52,0.12,0.78,0.2
			c0.26,0.06,0.52,0.14,0.81,0.29c0.12,0.03,0.23,0.09,0.35,0.14c0.32,0.17,0.58,0.35,0.87,0.55c0.14,0.09,0.29,0.2,0.41,0.32
			c0.46,0.41,0.87,0.84,1.22,1.33c0.09,0.17,0.17,0.32,0.29,0.49c0.87,1.62,0.98,3.62,0.41,5.36c-0.06,0.17-0.15,0.35-0.2,0.52
			c-0.06,0.17-0.14,0.32-0.26,0.49c-0.09,0.17-0.17,0.32-0.29,0.46c-0.26,0.43-0.58,0.78-0.96,1.13c-0.09,0.12-0.2,0.2-0.29,0.26
			c-0.12,0.09-0.23,0.2-0.38,0.29c-0.09,0.06-0.14,0.11-0.26,0.17c-0.14,0.09-0.32,0.2-0.46,0.26c-0.14,0.09-0.29,0.14-0.43,0.23
			c-0.46,0.2-0.95,0.35-1.45,0.43c-0.17,0.03-0.32,0.06-0.49,0.06c-0.15,0.03-0.32,0.03-0.52,0.03h-0.55
			c-0.41-0.03-0.81-0.09-1.22-0.17c-0.14-0.03-0.26-0.09-0.41-0.11c-0.17-0.06-0.32-0.12-0.46-0.17c-0.14-0.06-0.29-0.12-0.43-0.2
			c-0.35-0.17-0.69-0.38-1.01-0.61c-0.09-0.09-0.2-0.14-0.29-0.23c-0.14-0.15-0.29-0.26-0.43-0.41c-0.11-0.11-0.23-0.23-0.35-0.38
			c-0.09-0.09-0.14-0.17-0.2-0.26c-0.2-0.26-0.38-0.55-0.55-0.84c-0.12-0.2-0.23-0.4-0.32-0.64c-0.09-0.2-0.17-0.43-0.23-0.64
			c-0.11-0.41-0.2-0.84-0.23-1.24c-0.03-0.23-0.03-0.46-0.03-0.7C1149.71,1629.94,1149.74,1629.65,1149.77,1629.39 M1136.6,1604.2
			c0.06-0.06,0.12-0.12,0.17-0.14c0.17-0.12,0.32-0.23,0.49-0.35c0.17-0.12,0.35-0.2,0.49-0.29c0.12-0.09,0.23-0.14,0.38-0.17
			c0.12-0.06,0.23-0.12,0.35-0.17c0.26-0.09,0.52-0.17,0.78-0.2c0.52-0.15,1.01-0.2,1.53-0.2c1.68,0,3.36,0.64,4.63,1.91
			c0.15,0.14,0.26,0.26,0.35,0.41c0.06,0.06,0.11,0.09,0.17,0.17c0.09,0.12,0.17,0.26,0.26,0.38c0.09,0.11,0.17,0.26,0.23,0.38
			c0.09,0.15,0.17,0.26,0.23,0.41c0.35,0.67,0.55,1.39,0.64,2.11c0.03,0.12,0.03,0.2,0.03,0.29c0,0.17,0.03,0.38,0.03,0.52
			c0,0.49-0.06,0.98-0.17,1.45c-0.06,0.2-0.09,0.41-0.17,0.58c0,0.06-0.03,0.11-0.03,0.17c-0.09,0.17-0.15,0.35-0.23,0.52
			c-0.17,0.41-0.41,0.81-0.7,1.19c-0.06,0.09-0.14,0.2-0.26,0.29c-0.09,0.14-0.23,0.29-0.35,0.41c-0.43,0.43-0.93,0.81-1.45,1.1
			c-0.17,0.12-0.35,0.2-0.52,0.26c-0.17,0.09-0.38,0.17-0.55,0.23c-0.2,0.06-0.38,0.09-0.58,0.14c-0.17,0.06-0.38,0.09-0.58,0.12
			c-0.38,0.06-0.75,0.09-1.16,0.06c-0.2,0.03-0.41,0-0.58-0.03c-0.78-0.09-1.56-0.32-2.29-0.7c-0.2-0.11-0.38-0.2-0.58-0.35
			c-0.15-0.09-0.32-0.2-0.46-0.35c-0.38-0.29-0.72-0.64-1.01-0.98c-0.09-0.09-0.15-0.2-0.23-0.29c-0.03-0.06-0.09-0.14-0.11-0.23
			c-0.26-0.35-0.46-0.72-0.61-1.13c-0.12-0.2-0.17-0.41-0.23-0.61c-0.06-0.2-0.11-0.41-0.14-0.61c-0.06-0.2-0.09-0.41-0.09-0.64
			c-0.03-0.17-0.06-0.41-0.03-0.61c-0.03-0.61,0.06-1.22,0.23-1.8c0.03-0.09,0.06-0.17,0.09-0.26c0.09-0.29,0.23-0.61,0.38-0.93
			c0.09-0.17,0.17-0.32,0.26-0.46c0.03-0.06,0.06-0.12,0.12-0.17c0.06-0.09,0.12-0.17,0.17-0.26c0.11-0.14,0.23-0.29,0.32-0.41
			c0.06-0.06,0.12-0.11,0.17-0.17C1136.16,1604.55,1136.4,1604.37,1136.6,1604.2 M1125.39,1625.97c2.4-1.8,5.79-1.8,8.19,0
			c3.85,2.81,3.82,8.45,0,11.26c-2.4,1.74-5.76,1.74-8.16,0C1121.6,1634.42,1121.57,1628.81,1125.39,1625.97 M1105.33,1609.87
			c0-0.12,0-0.23,0.03-0.38c0.03-0.17,0.06-0.38,0.12-0.58c0.03-0.15,0.06-0.32,0.12-0.49c0.06-0.17,0.14-0.35,0.23-0.52
			c0.06-0.17,0.14-0.35,0.23-0.52c0.09-0.17,0.17-0.29,0.26-0.43c0.06-0.09,0.09-0.14,0.14-0.23c0.06-0.06,0.15-0.17,0.2-0.26
			c0.14-0.14,0.29-0.32,0.43-0.46c0.14-0.14,0.29-0.26,0.43-0.4c0.09-0.06,0.2-0.15,0.29-0.2c0.26-0.2,0.55-0.38,0.84-0.52
			c0.2-0.11,0.38-0.2,0.58-0.26c0.03,0,0.03-0.03,0.06-0.03c0.2-0.06,0.38-0.14,0.61-0.17c0.32-0.09,0.64-0.14,0.98-0.17
			c0.15-0.03,0.32-0.03,0.46-0.03h0.32c0.38,0,0.72,0.06,1.07,0.12c0.17,0.06,0.38,0.09,0.55,0.14c0.06,0,0.09,0.03,0.12,0.06
			c0.14,0.03,0.26,0.06,0.38,0.12c0.12,0.03,0.23,0.09,0.32,0.14c0.09,0.03,0.17,0.09,0.26,0.14c0.2,0.09,0.35,0.17,0.52,0.29
			c0.14,0.09,0.29,0.2,0.43,0.35c0.03,0,0.06,0,0.06,0.03c0.17,0.11,0.32,0.26,0.46,0.4c0.15,0.15,0.29,0.32,0.43,0.46
			c0.06,0.12,0.15,0.2,0.2,0.29c0.06,0.09,0.12,0.15,0.14,0.2c0.12,0.17,0.23,0.35,0.32,0.52c0.09,0.2,0.17,0.38,0.26,0.55
			c0.38,0.93,0.52,1.91,0.43,2.84c-0.03,0.17-0.03,0.35-0.06,0.49c-0.03,0.14-0.06,0.29-0.09,0.43c-0.09,0.35-0.2,0.67-0.32,0.98
			c-0.06,0.12-0.09,0.23-0.17,0.35c-0.03,0.06-0.06,0.15-0.12,0.2c-0.06,0.14-0.14,0.32-0.26,0.43c-0.03,0.09-0.09,0.17-0.14,0.26
			c-0.29,0.41-0.64,0.75-0.98,1.04c-0.12,0.12-0.26,0.23-0.41,0.32c-0.17,0.14-0.38,0.26-0.61,0.38c-0.14,0.09-0.29,0.17-0.46,0.23
			c-0.14,0.09-0.29,0.15-0.46,0.2c-0.09,0.03-0.2,0.06-0.32,0.11c-0.09,0.03-0.23,0.06-0.35,0.09c-0.14,0.03-0.29,0.06-0.43,0.09
			c-0.14,0.03-0.32,0.03-0.49,0.06h-0.55c-0.58,0-1.16-0.09-1.68-0.23c-0.2-0.06-0.41-0.14-0.58-0.2c-0.17-0.09-0.35-0.17-0.55-0.26
			c-0.35-0.2-0.69-0.41-1.01-0.7c-0.17-0.12-0.32-0.26-0.46-0.41c-0.17-0.17-0.29-0.32-0.43-0.46c-0.09-0.09-0.17-0.2-0.23-0.32
			c-0.06-0.06-0.09-0.12-0.12-0.2c-0.14-0.14-0.26-0.35-0.35-0.52c-0.17-0.35-0.35-0.72-0.43-1.13c-0.09-0.29-0.17-0.58-0.2-0.9
			c-0.03-0.12-0.03-0.26-0.03-0.38c-0.03-0.12-0.03-0.26-0.03-0.41C1105.3,1610.25,1105.3,1610.05,1105.33,1609.87 M1099.83,1611.87
			c0.49,4.63,1.8,9.18,3.85,13.4c1.04,2.14,2.26,4.23,3.68,6.2c1.3,1.82,2.78,3.56,4.4,5.18c3.91,3.91,8.4,6.86,13.2,8.92
			c2.23,0.93,4.49,1.68,6.83,2.2c6.8,1.59,13.95,1.45,20.73-0.46c2.29-0.64,4.52-1.48,6.66-2.49c4.2-2,8.11-4.72,11.58-8.19
			c1.82-1.8,3.42-3.74,4.81-5.76c1.39-2,2.58-4.08,3.59-6.25c1.85-4.05,3.07-8.37,3.53-12.74c0.55,4.6,0.29,9.32-0.72,13.9
			c-0.52,2.32-1.24,4.6-2.2,6.83c-2,4.89-5.01,9.47-9,13.46c-2.58,2.55-5.38,4.72-8.37,6.48c-2.05,1.22-4.23,2.26-6.43,3.04
			c-8.89,3.36-18.7,3.56-27.71,0.64c-2.23-0.72-4.43-1.65-6.54-2.78c-3.59-1.91-6.95-4.37-9.96-7.38
			c-3.79-3.79-6.72-8.13-8.74-12.77c-0.96-2.2-1.71-4.49-2.29-6.78C1099.57,1621.71,1099.25,1616.76,1099.83,1611.87"/>
		<path class="st1" d="M1303.47,1191.69c1.71,2.66,4.66,4.55,7.96,4.63c2.72,0.06,5.15-1.01,6.95-2.75
			c2.14-2.08,5.09-3.07,8.08-3.07h13.35c0.98,0,1.8,0.75,1.91,1.74c0.41,3.65,1.16,7.21,2.32,10.6l-0.52,0.2
			c-2.75,1.13-5.82,1.19-8.66,0.17c-2-0.7-4.26-0.67-6.4,0.2c-2.78,1.16-4.69,3.56-5.3,6.31c-0.26,1.22-0.14,2.49,0.35,3.65
			l1.25,3.04c0.41,0.98,1.04,1.88,1.88,2.49c2.4,1.71,5.62,2.26,8.51,1.16c2.34-0.93,4.08-2.72,4.98-4.84
			c1.1-2.55,3.27-4.46,5.85-5.5l0.78-0.35c1.59,3.21,3.53,6.22,5.73,9c0.67,0.84,0.64,2.05-0.12,2.81l-9.12,9.12
			c-2.26,2.26-5.27,3.59-8.48,3.76c-2.32,0.11-4.57,1.07-6.31,2.81c-2.34,2.35-3.24,5.62-2.63,8.66c0.26,1.24,0.9,2.4,1.8,3.27
			l2.52,2.52c0.81,0.81,1.8,1.45,2.9,1.71c3.07,0.7,6.51-0.09,8.89-2.34c1.97-1.88,2.98-4.4,3.01-6.89
			c0.03-2.98,1.45-5.79,3.53-7.87l9.32-9.32c0.75-0.78,1.97-0.81,2.81-0.14c2.43,1.94,5.04,3.65,7.82,5.15
			c0.38,0.2,0.78,0.4,1.16,0.61l-0.2,0.49c-1.04,2.58-2.92,4.69-5.36,5.99c-0.2,0.09-0.41,0.2-0.61,0.29
			c-1.91,0.93-3.53,2.52-4.4,4.66c-0.58,1.36-0.78,2.78-0.64,4.17c0.11,1.51,0.61,2.95,1.48,4.23c0.64,0.96,1.59,1.71,2.69,2.14
			l3.04,1.27c0.98,0.41,2.06,0.61,3.1,0.43c1.36-0.23,2.69-0.78,3.85-1.59c1.27-0.9,2.32-2.11,2.95-3.59
			c0.35-0.75,0.55-1.53,0.67-2.32c0.26-1.59,0.06-3.21-0.55-4.66c-1.01-2.58-0.81-5.47,0.23-8.02l0.35-0.78
			c2.32,0.78,4.72,1.39,7.21,1.82c1.04,0.2,2.11,0.35,3.18,0.49c1.1,0.11,1.91,0.98,1.91,2.08v12.85c0,3.21-1.19,6.31-3.33,8.69
			c-1.56,1.71-2.46,3.97-2.46,6.43c0,3.33,1.68,6.25,4.26,7.99c1.04,0.72,2.32,1.04,3.59,1.04h3.53c1.13,0,2.29-0.23,3.24-0.84
			c2.69-1.68,4.57-4.63,4.66-7.96c0.06-2.69-1.01-5.15-2.75-6.95c-2.09-2.14-3.07-5.12-3.07-8.11v-13.14c0-1.1,0.81-1.97,1.91-2.08
			c3.59-0.43,7.06-1.19,10.39-2.32l0.2,0.49c1.16,2.78,1.22,5.85,0.2,8.66c-0.7,2.03-0.7,4.31,0.17,6.43
			c1.19,2.84,3.71,4.78,6.54,5.33c1.16,0.23,2.34,0.09,3.45-0.38l3.04-1.24c0.98-0.41,1.88-1.01,2.49-1.88
			c1.71-2.4,2.26-5.62,1.16-8.48c-0.93-2.34-2.72-4.11-4.86-5.01c-2.52-1.1-4.43-3.3-5.5-5.85l-0.32-0.78
			c3.21-1.59,6.2-3.5,8.95-5.7c0.87-0.69,2.11-0.67,2.92,0.12l9.03,9.06c2.29,2.29,3.62,5.33,3.79,8.51
			c0.09,2.32,1.04,4.55,2.78,6.31c2.37,2.34,5.65,3.24,8.69,2.63c1.24-0.26,2.37-0.9,3.27-1.8l2.52-2.52
			c0.81-0.78,1.42-1.79,1.68-2.89c0.72-3.07-0.06-6.48-2.34-8.92c-1.88-1.94-4.37-2.95-6.86-2.95c-2.98-0.06-5.76-1.45-7.87-3.53
			l-9.29-9.29c-0.78-0.78-0.81-2.03-0.14-2.9c2.2-2.75,4.14-5.76,5.73-8.97l0.49,0.2c2.75,1.16,5.01,3.3,6.28,5.99
			c0.9,1.94,2.52,3.53,4.63,4.4c2.81,1.16,5.85,0.78,8.25-0.72c1.04-0.67,1.85-1.68,2.32-2.84l1.27-3.01
			c0.38-0.96,0.61-2.03,0.41-3.1c-0.46-2.9-2.37-5.56-5.15-6.8c-2.34-1.01-4.83-0.99-6.98-0.12c-2.58,1.01-5.47,0.81-8.02-0.23
			l-0.78-0.32c1.19-3.5,1.97-7.21,2.37-11c0.06-0.75,0.7-1.33,1.45-1.33h13.43c3.21,0,6.31,1.22,8.71,3.36
			c1.68,1.53,3.94,2.46,6.4,2.46c3.33,0,6.25-1.71,7.96-4.26c0.72-1.07,1.07-2.35,1.07-3.62v-3.56c0-1.13-0.26-2.29-0.84-3.24
			c-1.68-2.69-4.66-4.52-7.96-4.6c-2.72-0.09-5.18,1.01-6.98,2.75c-2.14,2.08-5.1,3.07-8.05,3.07h-13.75
			c-0.75,0-1.39-0.61-1.45-1.36c-0.41-3.79-1.19-7.47-2.37-10.97l0.49-0.2c2.75-1.16,5.85-1.22,8.66-0.2c2.03,0.7,4.28,0.7,6.4-0.2
			c2.78-1.13,4.69-3.53,5.3-6.22c0.29-1.24,0.14-2.55-0.32-3.73l-1.27-3.01c-0.38-0.99-0.98-1.91-1.85-2.52
			c-2.4-1.71-5.62-2.26-8.51-1.13c-2.34,0.9-4.08,2.69-4.98,4.84c-1.1,2.55-3.3,4.43-5.85,5.5l-0.78,0.32
			c-1.59-3.18-3.47-6.14-5.67-8.92c-0.7-0.87-0.67-2.17,0.14-2.98l9-9c2.29-2.29,5.3-3.62,8.51-3.76c2.29-0.14,4.55-1.07,6.28-2.81
			c2.37-2.37,3.24-5.64,2.63-8.68c-0.23-1.25-0.9-2.37-1.79-3.27l-2.49-2.49c-0.81-0.81-1.8-1.45-2.9-1.71
			c-3.1-0.72-6.51,0.06-8.92,2.35c-1.97,1.85-2.95,4.37-2.95,6.86c-0.06,2.98-1.45,5.79-3.56,7.87l-9.23,9.23
			c-0.81,0.81-2.09,0.87-2.98,0.14c-2.78-2.17-5.73-4.08-8.92-5.67l0.2-0.49c1.16-2.75,3.27-4.98,5.99-6.28
			c1.91-0.9,3.5-2.52,4.4-4.63c1.19-2.86,0.75-5.99-0.84-8.4c-0.64-0.98-1.62-1.71-2.69-2.17l-3.07-1.24
			c-0.96-0.41-2.03-0.61-3.07-0.46c-2.92,0.49-5.56,2.37-6.83,5.21c-1.01,2.32-0.96,4.81-0.09,6.98c1.01,2.55,0.81,5.44-0.26,7.99
			l-0.32,0.78c-3.47-1.16-7.12-1.97-10.86-2.34c-0.84-0.09-1.45-0.75-1.45-1.56v-13.32c0-3.21,1.19-6.31,3.33-8.68
			c1.56-1.71,2.49-3.97,2.49-6.46c0-3.33-1.71-6.25-4.28-7.99c-1.04-0.72-2.32-1.04-3.59-1.04h-3.53c-1.13,0-2.29,0.23-3.24,0.84
			c-2.69,1.68-4.57,4.66-4.63,7.96c-0.09,2.72,0.98,5.15,2.72,6.95c2.08,2.14,3.07,5.12,3.07,8.11v13.64c0,0.81-0.61,1.48-1.42,1.56
			c-3.76,0.38-7.41,1.19-10.89,2.34l-0.2-0.49c-1.16-2.78-1.22-5.85-0.23-8.65c0.72-2.03,0.72-4.29-0.17-6.4
			c-1.16-2.81-3.56-4.69-6.31-5.3c-1.22-0.29-2.49-0.14-3.65,0.32l-3.01,1.24c-0.98,0.41-1.88,1.01-2.49,1.88
			c-1.74,2.4-2.29,5.62-1.19,8.51c0.93,2.35,2.72,4.11,4.86,5.01c2.55,1.07,4.43,3.3,5.5,5.85l0.29,0.78
			c-3.18,1.59-6.2,3.5-8.97,5.73c-0.84,0.67-2.06,0.64-2.81-0.12l-9.12-9.12c-2.26-2.26-3.59-5.3-3.76-8.51
			c-0.12-2.29-1.04-4.54-2.81-6.31c-2.29-2.29-5.47-3.18-8.42-2.66c-1.33,0.23-2.55,0.9-3.5,1.85l-2.52,2.49
			c-0.81,0.81-1.45,1.8-1.71,2.9c-0.7,3.1,0.06,6.51,2.34,8.92c1.91,1.97,4.4,2.95,6.89,2.98c2.98,0.03,5.76,1.42,7.87,3.53
			l9.32,9.35c0.75,0.75,0.81,1.94,0.14,2.78c-2.23,2.78-4.14,5.79-5.76,9l-0.52-0.2c-2.72-1.13-4.98-3.27-6.25-5.96
			c-0.9-1.94-2.55-3.53-4.66-4.43c-2.78-1.16-5.82-0.78-8.22,0.72c-1.04,0.67-1.85,1.68-2.32,2.84l-1.27,3.04
			c-0.41,0.96-0.58,2.03-0.43,3.07c0.49,2.92,2.37,5.56,5.18,6.83c2.32,1.01,4.83,0.96,6.98,0.09c2.55-1.01,5.47-0.81,8.02,0.26
			l0.78,0.32c-0.29,0.84-0.58,1.71-0.81,2.61c-0.69,2.58-1.22,5.24-1.5,7.96c-0.12,0.98-0.93,1.77-1.91,1.77h-13.03
			c-3.21,0-6.28-1.19-8.68-3.36c-1.71-1.53-3.97-2.46-6.43-2.46c-3.33,0-6.25,1.71-7.99,4.26c-0.72,1.07-1.04,2.32-1.04,3.59v3.68
			C1302.66,1189.69,1302.89,1190.76,1303.47,1191.69 M1396.97,1191.52c0,0.09-0.03,0.17-0.06,0.26c-0.06,0.43-0.2,0.84-0.38,1.25
			c-0.06,0.2-0.17,0.38-0.26,0.58c-0.09,0.2-0.2,0.38-0.35,0.55c-0.09,0.17-0.23,0.32-0.38,0.49c-0.11,0.14-0.26,0.32-0.41,0.46
			c-0.4,0.43-0.9,0.78-1.42,1.07c-0.09,0.06-0.17,0.09-0.23,0.14c-0.32,0.14-0.64,0.29-0.96,0.41c-0.17,0.06-0.32,0.09-0.49,0.12
			c-0.17,0.06-0.35,0.09-0.52,0.12c-0.17,0.03-0.35,0.03-0.52,0.06h-0.23c-0.29,0.03-0.55,0-0.84-0.03h-0.23
			c-0.2-0.03-0.38-0.06-0.58-0.12c-0.2-0.03-0.41-0.09-0.58-0.14c-0.12-0.03-0.26-0.06-0.38-0.11c-0.12-0.06-0.23-0.09-0.35-0.15
			c-0.26-0.12-0.49-0.26-0.72-0.41c-0.43-0.26-0.84-0.58-1.22-0.95c-1.19-1.19-1.91-2.81-1.91-4.6c0-0.2,0-0.38,0.03-0.55v-0.23
			c0.03-0.14,0.06-0.29,0.09-0.43c0.03-0.17,0.06-0.32,0.12-0.46c0-0.09,0.03-0.17,0.06-0.26c0.23-0.78,0.61-1.48,1.1-2.11
			c0.06-0.09,0.12-0.14,0.17-0.23c0.14-0.11,0.23-0.26,0.38-0.38c0.35-0.35,0.72-0.64,1.13-0.9c0.17-0.12,0.35-0.2,0.52-0.32
			c0.06,0,0.11-0.06,0.14-0.06c0.17-0.09,0.35-0.17,0.52-0.23c0.43-0.14,0.87-0.26,1.33-0.32c0.12-0.03,0.26-0.06,0.38-0.06
			c0.17,0,0.38-0.03,0.55-0.03c0.61,0,1.22,0.09,1.79,0.26c0.2,0.03,0.38,0.09,0.55,0.17c0.2,0.06,0.38,0.14,0.55,0.26
			c0.17,0.09,0.35,0.17,0.52,0.29c0.17,0.09,0.32,0.17,0.46,0.32c0.35,0.23,0.64,0.46,0.9,0.78c0.14,0.12,0.26,0.26,0.38,0.43
			c0.49,0.61,0.9,1.33,1.13,2.08c0.06,0.2,0.12,0.43,0.15,0.64c0.06,0.2,0.09,0.38,0.09,0.58c0.06,0.49,0.06,0.95,0.03,1.42
			C1397,1191.28,1397,1191.4,1396.97,1191.52 M1401,1165.23c0,0.11-0.03,0.2-0.03,0.32c-0.06,0.35-0.12,0.67-0.2,0.98
			c-0.06,0.2-0.15,0.43-0.23,0.67c-0.12,0.23-0.2,0.43-0.32,0.64c-0.2,0.35-0.43,0.72-0.69,1.04c-0.15,0.17-0.29,0.35-0.46,0.49
			c-0.2,0.2-0.43,0.38-0.64,0.55c-0.14,0.12-0.29,0.2-0.43,0.32c-0.03,0-0.09,0.03-0.12,0.06c-0.2,0.12-0.38,0.2-0.55,0.29
			c-0.23,0.12-0.43,0.2-0.67,0.29c-0.23,0.06-0.46,0.14-0.72,0.2c-0.23,0.06-0.46,0.09-0.69,0.11c-0.23,0.03-0.46,0.06-0.72,0.06
			c-0.35,0-0.72-0.03-1.1-0.09c-0.29-0.06-0.58-0.12-0.87-0.2c-0.14-0.03-0.26-0.09-0.38-0.14c-0.11-0.03-0.2-0.06-0.29-0.12
			c-0.14-0.06-0.29-0.12-0.4-0.17c-0.17-0.09-0.32-0.17-0.43-0.26c-0.29-0.18-0.58-0.38-0.81-0.61c-0.17-0.12-0.32-0.26-0.43-0.41
			c-0.17-0.17-0.35-0.38-0.52-0.58c-0.03-0.03-0.06-0.09-0.09-0.12c-0.15-0.2-0.29-0.46-0.43-0.7s-0.26-0.49-0.38-0.75
			c-0.06-0.15-0.09-0.26-0.14-0.41c-0.09-0.32-0.17-0.64-0.23-0.96c-0.03-0.17-0.03-0.38-0.06-0.55c-0.03-0.61,0-1.19,0.12-1.77
			c0.03-0.2,0.09-0.38,0.12-0.55c0.55-1.76,1.85-3.27,3.5-4.08c0.17-0.06,0.35-0.14,0.52-0.2c0.14-0.09,0.32-0.14,0.52-0.17
			c0.17-0.09,0.35-0.11,0.55-0.14c0.46-0.09,0.96-0.14,1.48-0.12c0.12,0,0.26,0.03,0.38,0.03c0.14,0,0.29,0.03,0.46,0.06
			c0.09,0.03,0.17,0.03,0.29,0.06c0.17,0.03,0.38,0.09,0.55,0.14c0.14,0.06,0.29,0.11,0.43,0.17c0.46,0.17,0.93,0.41,1.33,0.7
			c0.14,0.09,0.26,0.17,0.38,0.29c0.14,0.12,0.29,0.2,0.41,0.35c0.14,0.14,0.26,0.26,0.38,0.41c0.29,0.29,0.52,0.64,0.72,0.99
			c0.12,0.11,0.14,0.23,0.23,0.38c0.09,0.15,0.14,0.29,0.2,0.43c0.06,0.14,0.12,0.29,0.17,0.46c0.12,0.35,0.2,0.72,0.26,1.1
			c0.03,0.14,0.03,0.29,0.06,0.41c0,0.17,0.03,0.38,0.03,0.58C1401.03,1164.88,1401,1165.06,1401,1165.23 M1418.14,1211
			c0,0.12,0,0.26-0.03,0.38c0,0.09-0.03,0.17-0.06,0.23c-0.03,0.2-0.06,0.41-0.14,0.61c-0.12,0.38-0.26,0.75-0.46,1.1
			c-0.14,0.26-0.32,0.52-0.52,0.78c-0.06,0.12-0.14,0.2-0.23,0.29c-0.09,0.12-0.17,0.2-0.26,0.29c-0.15,0.15-0.26,0.29-0.41,0.41
			c-0.09,0.09-0.17,0.14-0.29,0.23c-0.14,0.12-0.32,0.23-0.49,0.32c-0.11,0.09-0.26,0.17-0.43,0.26c-0.17,0.09-0.35,0.14-0.52,0.23
			c-0.17,0.06-0.35,0.12-0.55,0.17c-0.17,0.06-0.32,0.09-0.49,0.12c-0.09,0.03-0.17,0.06-0.26,0.06c-0.09,0.03-0.2,0.03-0.32,0.06
			c-0.2,0-0.41,0.03-0.64,0.03c-0.2,0-0.41-0.03-0.58-0.03c-0.12-0.03-0.23-0.03-0.38-0.06c-0.32-0.03-0.64-0.12-0.96-0.23
			c-0.2-0.06-0.38-0.12-0.58-0.2c-0.03-0.03-0.03-0.03-0.06-0.03c-0.17-0.09-0.38-0.17-0.55-0.29c-0.29-0.17-0.58-0.38-0.84-0.61
			c-0.12-0.09-0.23-0.17-0.32-0.29l-0.23-0.23c-0.26-0.26-0.49-0.55-0.67-0.84c-0.12-0.17-0.2-0.32-0.29-0.49
			c-0.03-0.03-0.06-0.09-0.09-0.12c-0.06-0.11-0.09-0.23-0.14-0.35c-0.06-0.09-0.12-0.2-0.14-0.35c0-0.09-0.06-0.17-0.06-0.26
			c-0.09-0.2-0.14-0.38-0.17-0.58c-0.03-0.17-0.06-0.35-0.09-0.55v-0.09c-0.03-0.17-0.03-0.38-0.03-0.58c0-0.23,0-0.43,0.03-0.64
			c0-0.12,0.03-0.26,0.03-0.38c0.03-0.09,0.03-0.14,0.06-0.23c0.03-0.2,0.09-0.41,0.17-0.58c0.06-0.2,0.09-0.41,0.2-0.58
			c0.38-0.9,0.95-1.71,1.68-2.32c0.11-0.09,0.26-0.2,0.38-0.29c0.12-0.09,0.26-0.17,0.38-0.23c0.29-0.2,0.61-0.35,0.93-0.49
			c0.12-0.06,0.23-0.09,0.35-0.11c0.09-0.03,0.15-0.06,0.23-0.09c0.14-0.06,0.32-0.09,0.49-0.12c0.09-0.03,0.2-0.06,0.29-0.06
			c0.49-0.09,0.96-0.09,1.42-0.06c0.17,0,0.35,0.03,0.49,0.06c0.26,0.03,0.49,0.09,0.72,0.17c0.17,0.03,0.32,0.09,0.49,0.14
			c0.14,0.06,0.29,0.12,0.46,0.2c0.09,0.03,0.17,0.09,0.29,0.15c0.09,0.06,0.23,0.12,0.32,0.2c0.14,0.06,0.26,0.14,0.38,0.23
			c0.11,0.09,0.26,0.2,0.38,0.29c0.15,0.14,0.26,0.26,0.41,0.41c0.38,0.41,0.75,0.87,1.01,1.36c0.09,0.17,0.17,0.38,0.26,0.52
			c0.06,0.2,0.15,0.38,0.2,0.58c0.12,0.4,0.2,0.81,0.23,1.22c0.03,0.2,0.06,0.41,0.06,0.61
			C1418.2,1210.6,1418.17,1210.8,1418.14,1211 M1413.19,1189.55c-2.92-0.43-5.33-2.84-5.76-5.79c-0.72-4.69,3.27-8.66,7.96-7.96
			c2.92,0.46,5.3,2.87,5.76,5.76C1421.87,1186.25,1417.91,1190.24,1413.19,1189.55 M1373.15,1149.77c2-1.27,4.14-2.37,6.34-3.27
			c4.89-2.06,10.25-3.16,15.89-3.16c3.62,0,7.12,0.46,10.45,1.33c2.34,0.58,4.57,1.39,6.72,2.37c8.66,3.91,15.69,10.68,19.98,19.11
			c1.07,2.08,1.97,4.31,2.66,6.6c1.19,3.85,1.85,7.96,1.85,12.22c0,5.38-1.01,10.48-2.87,15.2c-0.87,2.23-1.94,4.37-3.15,6.4
			c-2.58,4.2-5.88,7.93-9.7,10.97c2.89-3.62,5.21-7.73,6.72-12.19c0.81-2.26,1.39-4.57,1.8-6.98c0.35-2.2,0.55-4.46,0.55-6.75
			c0-5.53-1.1-10.8-3.04-15.6c-0.9-2.23-2-4.37-3.24-6.37c-3.71-5.96-8.86-10.88-15-14.33c-2.03-1.16-4.2-2.14-6.46-2.93
			c-4.34-1.56-9.03-2.4-13.93-2.4c-2.55,0-5.07,0.23-7.5,0.67c-2.37,0.43-4.69,1.07-6.89,1.88c-4.2,1.56-8.11,3.76-11.52,6.51
			C1365.71,1155.42,1369.18,1152.26,1373.15,1149.77"/>
		<path class="st1" d="M800.55,1192.07c1.71,2.55,4.63,4.26,7.96,4.26c2.46,0,4.72-0.93,6.4-2.46c2.4-2.14,5.5-3.36,8.71-3.36h13.43
			c0.75,0,1.39,0.58,1.45,1.33c0.41,3.79,1.19,7.5,2.37,11l-0.78,0.32c-2.55,1.04-5.44,1.25-8.02,0.23
			c-2.14-0.87-4.63-0.9-6.98,0.11c-2.78,1.24-4.69,3.91-5.15,6.8c-0.2,1.07,0.03,2.14,0.4,3.1l1.27,3.01
			c0.46,1.16,1.27,2.17,2.32,2.84c2.4,1.51,5.44,1.88,8.25,0.72c2.11-0.87,3.73-2.46,4.63-4.4c1.27-2.69,3.53-4.83,6.28-5.99
			l0.49-0.2c1.59,3.21,3.53,6.22,5.73,8.97c0.67,0.87,0.64,2.12-0.14,2.9l-9.29,9.29c-2.11,2.08-4.89,3.47-7.87,3.53
			c-2.49,0-4.98,1.01-6.86,2.95c-2.29,2.43-3.07,5.85-2.34,8.92c0.26,1.1,0.87,2.11,1.68,2.89l2.52,2.52c0.9,0.9,2.03,1.53,3.27,1.8
			c3.04,0.61,6.31-0.29,8.69-2.63c1.74-1.77,2.69-4,2.78-6.31c0.17-3.18,1.51-6.22,3.79-8.51l9.03-9.06
			c0.81-0.78,2.05-0.81,2.92-0.12c2.75,2.2,5.73,4.11,8.94,5.7l-0.32,0.78c-1.07,2.55-2.98,4.75-5.5,5.85
			c-2.14,0.9-3.94,2.66-4.86,5.01c-1.1,2.87-0.55,6.08,1.16,8.48c0.61,0.87,1.51,1.48,2.49,1.88l3.04,1.24
			c1.1,0.46,2.29,0.61,3.45,0.38c2.84-0.55,5.36-2.49,6.54-5.33c0.87-2.12,0.87-4.4,0.17-6.43c-1.01-2.81-0.96-5.88,0.2-8.66
			l0.2-0.49c3.33,1.13,6.8,1.88,10.39,2.32c1.1,0.12,1.91,0.99,1.91,2.08v13.14c0,2.98-0.99,5.96-3.07,8.11
			c-1.74,1.79-2.81,4.26-2.75,6.95c0.09,3.33,1.97,6.28,4.66,7.96c0.95,0.61,2.11,0.84,3.24,0.84h3.53c1.27,0,2.55-0.32,3.59-1.04
			c2.58-1.74,4.26-4.66,4.26-7.99c0-2.46-0.9-4.72-2.46-6.43c-2.14-2.37-3.33-5.47-3.33-8.69v-12.85c0-1.1,0.81-1.97,1.91-2.08
			c1.07-0.14,2.14-0.29,3.18-0.49c0.9-0.17,1.8-0.35,2.69-0.55c0.84-0.17,1.68-0.41,2.49-0.64c0.69-0.2,1.36-0.41,2.03-0.64
			l0.35,0.78c0.67,1.62,0.98,3.39,0.87,5.09c-0.06,1.01-0.26,1.97-0.64,2.92c-0.06,0.15-0.12,0.29-0.17,0.43
			c-0.46,1.33-0.61,2.78-0.38,4.23c0.12,0.78,0.32,1.56,0.67,2.32c0.64,1.48,1.68,2.69,2.95,3.59c1.16,0.81,2.49,1.36,3.85,1.59
			c0.06,0.03,0.14,0.03,0.2,0.03c0.9,0.11,1.8-0.06,2.66-0.38c0.09-0.03,0.14-0.06,0.23-0.09l3.04-1.27
			c1.1-0.43,2.06-1.19,2.69-2.14c0.87-1.27,1.36-2.72,1.48-4.23c0.14-1.39-0.06-2.81-0.64-4.17c-0.87-2.14-2.49-3.73-4.4-4.66
			c-0.2-0.09-0.4-0.2-0.61-0.29c-2.43-1.3-4.31-3.42-5.36-5.99l-0.2-0.49c0.38-0.2,0.78-0.41,1.16-0.61
			c0.75-0.41,1.51-0.84,2.26-1.27c0.69-0.43,1.39-0.87,2.05-1.33c1.19-0.78,2.37-1.65,3.5-2.55c0.84-0.67,2.06-0.64,2.81,0.14
			l9.32,9.32c2.08,2.08,3.5,4.89,3.53,7.87c0.03,2.49,1.04,5.01,3.01,6.89c2.37,2.26,5.82,3.04,8.89,2.34
			c1.1-0.26,2.08-0.9,2.89-1.71l2.52-2.52c0.9-0.87,1.53-2.03,1.8-3.27c0.61-3.04-0.29-6.31-2.64-8.66
			c-1.74-1.74-3.99-2.69-6.31-2.81c-3.21-0.18-6.22-1.51-8.48-3.76l-9.12-9.12c-0.75-0.75-0.78-1.97-0.12-2.81
			c2.2-2.78,4.14-5.79,5.73-9l0.78,0.35c2.58,1.04,4.75,2.95,5.85,5.5c0.9,2.11,2.63,3.91,4.98,4.84c2.9,1.1,6.11,0.55,8.51-1.16
			c0.84-0.61,1.48-1.51,1.88-2.49l1.24-3.04c0.49-1.16,0.61-2.43,0.35-3.65c-0.61-2.75-2.52-5.15-5.3-6.31
			c-2.14-0.87-4.4-0.9-6.4-0.2c-2.84,1.01-5.91,0.95-8.66-0.17l-0.52-0.2c1.16-3.39,1.91-6.95,2.32-10.6
			c0.11-0.98,0.93-1.74,1.91-1.74H955c2.98,0,5.94,0.98,8.08,3.07c1.8,1.74,4.23,2.81,6.95,2.75c3.3-0.09,6.25-1.97,7.96-4.63
			c0.58-0.93,0.81-2,0.84-3.13v-3.68c0-1.27-0.32-2.52-1.04-3.59c-1.74-2.55-4.66-4.26-7.99-4.26c-2.46,0-4.72,0.93-6.43,2.46
			c-2.4,2.17-5.47,3.36-8.69,3.36h-13.03c-0.98,0-1.8-0.78-1.91-1.77c-0.29-2.72-0.81-5.38-1.51-7.96c-0.23-0.9-0.52-1.77-0.81-2.61
			l0.78-0.32c2.55-1.07,5.47-1.27,8.02-0.26c2.14,0.87,4.66,0.93,6.98-0.09c2.81-1.27,4.69-3.91,5.18-6.83
			c0.14-1.04-0.03-2.11-0.43-3.07l-1.27-3.04c-0.46-1.16-1.27-2.17-2.32-2.84c-2.4-1.5-5.44-1.88-8.22-0.72
			c-2.11,0.9-3.76,2.49-4.66,4.43c-1.27,2.69-3.53,4.83-6.25,5.96l-0.52,0.2c-1.62-3.21-3.53-6.22-5.76-9
			c-0.67-0.84-0.61-2.03,0.15-2.78l9.32-9.35c2.11-2.11,4.89-3.5,7.87-3.53c2.49-0.03,4.98-1.01,6.89-2.98
			c2.29-2.4,3.04-5.82,2.34-8.92c-0.26-1.1-0.9-2.08-1.71-2.9l-2.52-2.49c-0.96-0.96-2.17-1.62-3.5-1.85
			c-2.95-0.52-6.14,0.38-8.42,2.66c-1.77,1.77-2.69,4.03-2.81,6.31c-0.17,3.22-1.51,6.25-3.76,8.51l-9.12,9.12
			c-0.75,0.75-1.97,0.78-2.81,0.12c-2.78-2.23-5.79-4.14-8.97-5.73l0.29-0.78c1.07-2.55,2.95-4.78,5.5-5.85
			c2.14-0.9,3.94-2.66,4.86-5.01c1.1-2.9,0.55-6.11-1.19-8.51c-0.61-0.87-1.51-1.48-2.49-1.88l-3.01-1.24
			c-1.16-0.46-2.43-0.61-3.65-0.32c-2.75,0.61-5.15,2.49-6.31,5.3c-0.9,2.11-0.9,4.37-0.17,6.4c0.98,2.81,0.93,5.88-0.23,8.65
			l-0.2,0.49c-3.47-1.16-7.12-1.97-10.89-2.34c-0.81-0.09-1.42-0.75-1.42-1.56v-13.64c0-2.98,0.99-5.96,3.07-8.11
			c1.74-1.8,2.81-4.23,2.72-6.95c-0.06-3.3-1.94-6.28-4.63-7.96c-0.95-0.61-2.11-0.84-3.24-0.84h-3.53c-1.27,0-2.55,0.32-3.59,1.04
			c-2.58,1.74-4.28,4.66-4.28,7.99c0,2.49,0.93,4.75,2.49,6.45c2.14,2.37,3.33,5.47,3.33,8.69v13.32c0,0.81-0.61,1.48-1.45,1.56
			c-3.73,0.38-7.38,1.19-10.86,2.34l-0.32-0.78c-1.07-2.55-1.27-5.44-0.26-7.99c0.87-2.17,0.93-4.66-0.09-6.98
			c-1.27-2.84-3.91-4.72-6.83-5.21c-1.04-0.15-2.11,0.06-3.07,0.46l-3.07,1.24c-1.07,0.46-2.06,1.19-2.69,2.17
			c-1.59,2.4-2.03,5.53-0.84,8.4c0.9,2.11,2.49,3.74,4.4,4.63c2.72,1.3,4.84,3.53,5.99,6.28l0.2,0.49c-3.18,1.59-6.14,3.5-8.92,5.67
			c-0.9,0.72-2.17,0.67-2.98-0.14l-9.24-9.23c-2.11-2.08-3.5-4.89-3.56-7.87c0-2.49-0.98-5.01-2.95-6.86
			c-2.4-2.29-5.82-3.07-8.92-2.34c-1.1,0.26-2.08,0.9-2.89,1.71l-2.49,2.49c-0.9,0.9-1.56,2.03-1.79,3.27
			c-0.61,3.04,0.26,6.31,2.63,8.68c1.74,1.74,4,2.66,6.28,2.81c3.21,0.14,6.22,1.48,8.51,3.76l9,9c0.81,0.81,0.84,2.11,0.14,2.98
			c-2.2,2.78-4.08,5.73-5.67,8.92l-0.78-0.32c-2.55-1.07-4.75-2.95-5.85-5.5c-0.9-2.14-2.63-3.94-4.98-4.83
			c-2.9-1.13-6.11-0.58-8.51,1.13c-0.87,0.61-1.48,1.53-1.85,2.52l-1.27,3.01c-0.46,1.19-0.61,2.49-0.32,3.73
			c0.61,2.69,2.52,5.1,5.3,6.22c2.11,0.9,4.37,0.9,6.4,0.2c2.81-1.01,5.9-0.95,8.65,0.2l0.49,0.2c-1.19,3.5-1.97,7.18-2.37,10.97
			c-0.06,0.75-0.7,1.36-1.45,1.36H823.3c-2.95,0-5.91-0.98-8.05-3.07c-1.79-1.74-4.26-2.84-6.98-2.75c-3.3,0.09-6.28,1.91-7.96,4.6
			c-0.58,0.95-0.84,2.11-0.84,3.24v3.56C799.48,1189.72,799.82,1191,800.55,1192.07 M860.3,1181.56c0.46-2.89,2.84-5.3,5.76-5.76
			c4.69-0.69,8.69,3.27,7.96,7.96c-0.43,2.95-2.84,5.36-5.76,5.79C863.54,1190.24,859.58,1186.25,860.3,1181.56 M875.56,1210.97
			v0.09c-0.03,0.2-0.06,0.38-0.09,0.55c-0.03,0.2-0.09,0.38-0.17,0.58c0,0.09-0.06,0.17-0.06,0.26c-0.03,0.14-0.09,0.26-0.15,0.35
			c-0.06,0.12-0.09,0.23-0.14,0.35c-0.03,0.03-0.06,0.09-0.09,0.12c-0.09,0.17-0.17,0.32-0.29,0.49c-0.17,0.29-0.4,0.58-0.67,0.84
			l-0.23,0.23c-0.09,0.11-0.2,0.2-0.32,0.29c-0.26,0.23-0.55,0.43-0.84,0.61c-0.17,0.12-0.38,0.2-0.55,0.29
			c-0.03,0-0.03,0-0.06,0.03c-0.2,0.09-0.38,0.14-0.58,0.2c-0.32,0.12-0.64,0.2-0.96,0.23c-0.15,0.03-0.26,0.03-0.38,0.06
			c-0.17,0-0.38,0.03-0.58,0.03c-0.23,0-0.43-0.03-0.64-0.03c-0.11-0.03-0.23-0.03-0.32-0.06c-0.09,0-0.17-0.03-0.26-0.06
			c-0.17-0.03-0.32-0.06-0.49-0.12c-0.2-0.06-0.38-0.12-0.55-0.17c-0.17-0.09-0.35-0.14-0.52-0.23c-0.17-0.09-0.32-0.17-0.43-0.26
			c-0.17-0.09-0.35-0.2-0.49-0.32c-0.11-0.09-0.2-0.15-0.29-0.23c-0.14-0.11-0.26-0.26-0.41-0.41c-0.09-0.09-0.17-0.17-0.26-0.29
			c-0.09-0.09-0.17-0.17-0.23-0.29c-0.2-0.26-0.38-0.52-0.52-0.78c-0.2-0.35-0.35-0.72-0.46-1.1c-0.09-0.2-0.12-0.41-0.15-0.61
			c-0.03-0.06-0.06-0.14-0.06-0.23c-0.03-0.11-0.03-0.26-0.03-0.38c-0.03-0.2-0.06-0.4-0.06-0.64c0-0.2,0.03-0.41,0.06-0.61
			c0.03-0.41,0.12-0.81,0.23-1.22c0.06-0.2,0.14-0.38,0.2-0.58c0.09-0.14,0.17-0.35,0.26-0.52c0.26-0.49,0.64-0.95,1.01-1.36
			c0.15-0.15,0.26-0.26,0.41-0.41c0.11-0.09,0.26-0.2,0.38-0.29c0.11-0.09,0.23-0.17,0.38-0.23c0.09-0.09,0.23-0.14,0.32-0.2
			c0.12-0.06,0.2-0.12,0.29-0.15c0.17-0.09,0.32-0.14,0.46-0.2c0.17-0.06,0.32-0.11,0.49-0.14c0.23-0.09,0.46-0.15,0.72-0.17
			c0.14-0.03,0.32-0.06,0.49-0.06c0.46-0.03,0.93-0.03,1.42,0.06c0.09,0,0.2,0.03,0.29,0.06c0.17,0.03,0.35,0.06,0.49,0.12
			c0.09,0.03,0.14,0.06,0.23,0.09c0.12,0.03,0.23,0.06,0.35,0.12c0.32,0.14,0.64,0.29,0.93,0.49c0.12,0.06,0.26,0.14,0.38,0.23
			c0.12,0.09,0.26,0.2,0.38,0.29c0.72,0.61,1.3,1.42,1.68,2.32c0.12,0.17,0.15,0.38,0.2,0.58c0.09,0.17,0.15,0.38,0.17,0.58
			c0.03,0.09,0.03,0.14,0.06,0.23c0,0.11,0.03,0.26,0.03,0.38c0.03,0.2,0.03,0.41,0.03,0.64
			C875.59,1210.6,875.59,1210.8,875.56,1210.97 M890.44,1197.02c-0.17-0.03-0.35-0.03-0.52-0.06l-0.43-0.09
			c-0.03,0-0.06-0.03-0.09-0.03c-0.17-0.03-0.32-0.06-0.49-0.12c-0.32-0.11-0.64-0.26-0.96-0.41c-0.06-0.06-0.14-0.09-0.23-0.14
			c-0.52-0.29-1.01-0.64-1.42-1.07c-0.14-0.15-0.29-0.32-0.4-0.46c-0.14-0.17-0.29-0.32-0.38-0.49c-0.15-0.18-0.26-0.35-0.35-0.55
			c-0.09-0.2-0.2-0.38-0.26-0.58c-0.17-0.41-0.32-0.81-0.38-1.25c-0.03-0.09-0.06-0.17-0.06-0.26c-0.03-0.11-0.03-0.23-0.06-0.35
			c-0.03-0.46-0.03-0.93,0.03-1.42c0-0.2,0.03-0.38,0.09-0.58c0.03-0.2,0.09-0.43,0.14-0.64c0.23-0.75,0.64-1.48,1.13-2.08
			c0.12-0.17,0.23-0.32,0.38-0.43c0.26-0.32,0.55-0.55,0.9-0.78c0.14-0.15,0.29-0.23,0.46-0.32c0.17-0.12,0.35-0.2,0.52-0.29
			c0.17-0.12,0.35-0.2,0.55-0.26c0.17-0.09,0.35-0.14,0.55-0.17c0.23-0.06,0.46-0.12,0.69-0.18h0.09c0.32-0.06,0.67-0.09,1.01-0.09
			c0.17,0,0.38,0.03,0.55,0.03c0.12,0,0.26,0.03,0.38,0.06c0.12,0,0.23,0.03,0.32,0.06c0.35,0.06,0.7,0.15,1.01,0.26
			c0.17,0.06,0.35,0.14,0.52,0.23c0.03,0,0.09,0.06,0.14,0.06c0.17,0.12,0.35,0.2,0.52,0.32c0.41,0.26,0.78,0.55,1.13,0.9
			c0.14,0.12,0.23,0.26,0.38,0.38c0.06,0.09,0.11,0.15,0.17,0.23c0.49,0.64,0.87,1.33,1.1,2.11c0.03,0.09,0.06,0.17,0.06,0.26
			c0.06,0.12,0.09,0.23,0.09,0.38c0.03,0.03,0.03,0.06,0.03,0.09c0.03,0.15,0.06,0.29,0.09,0.43v0.23c0.03,0.17,0.03,0.35,0.03,0.55
			c0,1.79-0.72,3.42-1.91,4.6c-0.38,0.38-0.78,0.69-1.22,0.95c-0.23,0.15-0.46,0.29-0.72,0.41c-0.11,0.06-0.23,0.09-0.35,0.15
			c-0.12,0.06-0.26,0.09-0.38,0.11c-0.11,0.06-0.29,0.09-0.43,0.12c-0.03,0-0.09,0.03-0.14,0.03c-0.2,0.06-0.38,0.09-0.58,0.12
			h-0.23c-0.29,0.03-0.55,0.06-0.84,0.03H890.44z M893.45,1165.75c-0.06,0.32-0.14,0.64-0.23,0.96c-0.06,0.14-0.09,0.26-0.14,0.41
			c-0.12,0.26-0.23,0.52-0.38,0.75c-0.14,0.23-0.29,0.49-0.43,0.7c-0.03,0.03-0.06,0.09-0.09,0.12c-0.17,0.2-0.35,0.4-0.52,0.58
			c-0.12,0.14-0.26,0.29-0.43,0.41c-0.23,0.23-0.52,0.43-0.81,0.61c-0.12,0.09-0.26,0.17-0.43,0.26c-0.12,0.06-0.26,0.12-0.41,0.17
			c-0.09,0.06-0.17,0.09-0.29,0.12c-0.12,0.06-0.23,0.11-0.38,0.14c-0.29,0.09-0.58,0.14-0.87,0.2c-0.38,0.06-0.75,0.09-1.1,0.09
			c-0.26,0-0.49-0.03-0.72-0.06c-0.23-0.03-0.46-0.06-0.69-0.12c-0.26-0.06-0.49-0.14-0.72-0.2c-0.23-0.09-0.43-0.17-0.67-0.29
			c-0.17-0.09-0.35-0.17-0.55-0.29c-0.03-0.03-0.09-0.06-0.12-0.06c-0.14-0.12-0.29-0.2-0.43-0.32c-0.2-0.17-0.43-0.35-0.64-0.55
			c-0.17-0.14-0.32-0.32-0.46-0.49c-0.26-0.32-0.49-0.7-0.7-1.04c-0.12-0.2-0.2-0.41-0.32-0.64c-0.09-0.23-0.17-0.46-0.23-0.67
			c-0.09-0.32-0.14-0.64-0.2-0.98c0-0.12-0.03-0.2-0.03-0.32c0-0.17-0.03-0.35-0.03-0.52c0-0.2,0.03-0.41,0.03-0.58
			c0.03-0.12,0.03-0.26,0.06-0.41c0.06-0.38,0.14-0.75,0.26-1.1c0.06-0.17,0.12-0.32,0.17-0.46c0.06-0.14,0.12-0.29,0.2-0.43
			c0.09-0.14,0.11-0.26,0.23-0.38c0.2-0.35,0.43-0.7,0.72-0.99c0.12-0.15,0.23-0.26,0.38-0.41c0.12-0.15,0.26-0.23,0.41-0.35
			c0.12-0.11,0.23-0.2,0.38-0.29c0.4-0.29,0.87-0.52,1.33-0.7c0.15-0.06,0.29-0.12,0.43-0.17c0.17-0.06,0.38-0.12,0.55-0.14
			c0.11-0.03,0.2-0.03,0.29-0.06c0.17-0.03,0.32-0.06,0.46-0.06c0.12,0,0.26-0.03,0.38-0.03c0.52-0.03,1.01,0.03,1.48,0.12
			c0.2,0.03,0.38,0.06,0.55,0.14c0.2,0.03,0.38,0.09,0.52,0.17c0.17,0.06,0.35,0.14,0.52,0.2c1.65,0.81,2.95,2.32,3.5,4.08
			c0.03,0.18,0.09,0.35,0.12,0.55c0.12,0.58,0.14,1.16,0.12,1.77C893.48,1165.38,893.48,1165.58,893.45,1165.75 M846.26,1172.76
			c0.7-2.29,1.59-4.52,2.66-6.6c4.28-8.42,11.32-15.2,19.98-19.11c2.14-0.98,4.37-1.8,6.72-2.37c3.33-0.87,6.83-1.33,10.45-1.33
			c5.65,0,11,1.1,15.89,3.16c2.2,0.9,4.34,2,6.34,3.27c3.97,2.49,7.44,5.65,10.34,9.29c-3.42-2.75-7.32-4.95-11.52-6.51
			c-2.2-0.81-4.52-1.45-6.89-1.88c-2.43-0.43-4.95-0.67-7.5-0.67c-4.89,0-9.58,0.84-13.92,2.4c-2.26,0.78-4.43,1.77-6.46,2.93
			c-6.14,3.45-11.29,8.37-15,14.33c-1.25,2-2.34,4.14-3.24,6.37c-1.94,4.81-3.04,10.07-3.04,15.6c0,2.29,0.2,4.55,0.55,6.75
			c0.4,2.4,0.98,4.72,1.79,6.98c1.51,4.46,3.82,8.57,6.72,12.19c-3.82-3.04-7.12-6.77-9.7-10.97c-1.22-2.03-2.29-4.17-3.15-6.4
			c-1.85-4.72-2.87-9.81-2.87-15.2C844.41,1180.72,845.07,1176.61,846.26,1172.76"/>
	</g>
	<g>
		<g>
			<path class="st3" d="M1549.21,1381.24V1219.7c0-11.3,4.7-20.04,14.36-26.7c6.43-4.28,13.64-6.46,21.42-6.46H1639
				c23.63,0,41.41,7.83,52.82,23.28c6.7,8.88,10.08,18.96,10.08,29.98c0,15.22-5.85,28.11-17.4,38.31l-0.08,0.08
				c-0.61,0.61-1.13,1.06-1.55,1.34l-2.53,1.68l2.69,1.41c16.28,8.56,25.97,20.77,28.81,36.3c0.5,2.83,0.75,5.63,0.75,8.29
				c0,15.67-6.87,28.71-20.41,38.74c-13.54,10.15-31.44,15.3-53.2,15.3H1549.21z M1585.53,1350.4H1639
				c16.93,0,28.68-4.93,34.91-14.66c2.11-3.64,3.16-7.36,3.16-11.15c0-9.04-4.98-16.17-14.81-21.17c-6.5-3.25-14.32-4.89-23.26-4.89
				h-45.83l19.18-31.1H1639c12.38,0,20.83-4.93,25.13-14.64c1.49-3.35,2.24-6.84,2.24-10.38c0-9.9-4.36-17.2-12.97-21.69
				c-4.25-2.21-9.09-3.34-14.4-3.34h-53.46V1350.4z"/>
			<rect x="1746.99" y="1186.54" class="st3" width="36.32" height="194.7"/>
			<path class="st3" d="M1892.09,1383.85c-20.97,0-39.06-7.55-53.77-22.43c-14.03-14.19-21.14-31.41-21.14-51.18v-52.71
				c0-20.61,7.54-38.35,22.41-52.72c14.7-13.86,32.37-20.89,52.5-20.89h26.61c20.97,0,39.06,7.55,53.77,22.43
				c14.03,14.2,21.14,31.42,21.14,51.18v52.71c0,20.62-7.54,38.35-22.41,52.72c-14.7,13.86-32.37,20.89-52.5,20.89H1892.09z
				 M1892.09,1214.77c-12.57,0-22.82,5.62-30.45,16.7c-5.4,7.75-8.15,16.52-8.15,26.07v52.71c0,14.07,5.13,25.5,15.26,33.99
				c7.09,5.82,14.94,8.77,23.34,8.77h26.61c12.58,0,22.83-5.71,30.45-16.97c5.23-7.75,7.88-16.43,7.88-25.8v-52.71
				c0-14.24-5.22-25.77-15.53-34.27c-6.73-5.64-14.41-8.5-22.8-8.5H1892.09z"/>
			<path class="st4" d="M2112.83,1383.85c-17.41-0.17-29.83-11.22-37.97-33.77l-57.6-163.54h38.97l56.59,161.77l56.59-161.77h38.98
				l-57.35,163.55C2142.76,1372.63,2130.25,1383.68,2112.83,1383.85"/>
			<rect x="2237.53" y="1186.54" class="st4" width="36.32" height="194.7"/>
			<path class="st4" d="M2437.72,1381.24l-49.58-56.1h-28.36l19.16-30.84h26.66c17.01,0,28.7-6.04,34.74-17.95
				c2.39-4.96,3.59-10.58,3.59-16.73v-7.57c0-16.44-7.52-27.29-22.37-32.24c-4.86-1.62-10.23-2.44-15.96-2.44h-53.46v163.86h-36.32
				V1219.7c0-11.3,4.7-20.04,14.36-26.7c6.43-4.28,13.64-6.47,21.42-6.47h54.01c23.57,0,42.73,7.11,56.92,21.14
				c11.93,11.94,17.99,26.87,17.99,44.38v7.57c0,21.88-8.78,39.12-26.11,51.23c-6.59,4.56-13.97,8.08-21.92,10.45l-2.72,0.81
				l52.96,59.13H2437.72z"/>
			<path class="st4" d="M2652.65,1381.24l-9.39-26.35h-84.92l19.16-30.84h55.02l-36.45-104.59l-56.6,161.78h-38.98l57.35-163.55
				c8.3-22.54,20.81-33.59,38.24-33.76c17.38,0.17,29.81,11.22,37.95,33.78l57.6,163.54H2652.65z"/>
			<path class="st5" d="M2735.9,1381.24V1219.7c0-11.13,4.7-19.78,14.35-26.44c6.45-4.46,13.74-6.73,21.68-6.73h57.43v30.84h-56.88
				v163.86H2735.9z M2682.67,1217.38v-30.84h55.76l-19.16,30.84H2682.67z"/>
			<path class="st5" d="M2893.78,1381.24c-12.24,0-21.76-4.47-29.12-13.67c-4.58-5.89-6.91-12.45-6.91-19.49V1219.7
				c0-11.13,4.7-19.77,14.36-26.44c6.45-4.46,13.74-6.73,21.68-6.73h120.39l-16.82,30.84h-103.01v52.13h94.19v30.84h-94.19v50.04
				h103.01l16.82,30.84H2893.78z"/>
			<path class="st5" d="M3114.26,1381.24c-20.97,0-39.06-7.55-53.78-22.43c-14.02-14.19-21.14-31.41-21.14-51.18v-47.49
				c0-20.61,7.54-38.35,22.41-52.72c14.7-13.86,32.37-20.89,52.5-20.89h26.61c16.52,0,32.76,3.72,48.28,11.05
				c5.53,2.76,10.1,5.69,13.62,8.7l-31.61,24.48c-6.27-7.34-14.79-11.75-25.36-13.12c-1.9-0.19-3.49-0.28-4.93-0.28h-26.61
				c-12.57,0-22.82,5.62-30.45,16.7c-5.4,7.74-8.15,16.52-8.15,26.07v47.49c0,14.06,5.13,25.5,15.25,33.99
				c7.09,5.82,14.94,8.77,23.34,8.77h26.61c11.22,0,20.86-3.86,28.65-11.47c0.6-0.6,1.13-1.16,1.61-1.69l31.63,24.26
				c-9.49,8.2-23.83,14.15-42.66,17.69c-6.99,1.37-13.45,2.06-19.24,2.06H3114.26z"/>
			<polygon class="st5" points="3363.94,1381.24 3363.94,1300.36 3274.5,1300.36 3274.5,1381.24 3238.18,1381.24 3238.18,1186.54 
				3274.5,1186.54 3274.5,1295.64 3290.86,1269.52 3363.94,1269.52 3363.94,1186.54 3400.52,1186.54 3400.52,1381.24 			"/>
		</g>
		<g>
			<path d="M2334.63,1548.98c0,7.75-2.22,14.87-6.61,21.16c-6.12,8.89-13.95,13.21-23.93,13.21h-19.61
				c-6.63,0-12.46-2.19-17.83-6.69c-8.39-6.92-12.47-15.98-12.47-27.69v-115.84h-43.2v115.84c0,19.44,6.99,36.37,20.77,50.32
				c14.43,14.59,32.17,21.99,52.73,21.99h19.61c19.73,0,37.05-6.9,51.48-20.51c14.61-14.11,22.02-31.54,22.02-51.8v-115.84h-42.96
				V1548.98z"/>
			<path d="M2530.59,1525.7c-9.8-6.04-26.99-12.28-51.1-18.55c-9.72-2.5-16.72-4.49-20.83-5.91c-11.41-3.85-17.69-8.47-17.69-13.01
				c0-2.76,1.07-5.44,3.25-8.15l0.05-0.06c5.4-5.93,13.68-8.94,24.62-8.94h24.4c0.96,0,1.92,0.07,2.96,0.22
				c8.24,1.01,14.57,4.73,19.33,11.37l1.92,2.67l37.6-28.9l-2.68-2.56c-3.7-3.53-8.63-6.93-14.66-10.12
				c-14.26-7.04-29.22-10.61-44.46-10.61h-24.4c-18.94,0-35.52,5.12-49.26,15.22c-14.5,10.79-21.85,24.2-21.85,39.87
				c0,11.14,3.83,20.97,11.4,29.21c9.26,9.78,26.02,17.81,51.23,24.56c20.09,5.44,32.58,8.96,34.29,9.68l0.17,0.07
				c11.92,4.17,17.72,8.9,17.72,14.46c0,2.72-1.13,5.3-3.43,7.85c-5.88,6.17-14.93,9.3-26.88,9.3h-24.4c-1.15,0-2.51-0.08-3.91-0.21
				c-9.28-1.18-16.26-4.86-21.35-11.26l-1.95-2.46l-36.98,28.58l2.67,2.56c3.73,3.56,8.83,6.97,15.19,10.14
				c14.86,7.03,30.45,10.59,46.33,10.59h24.4c19.57,0,36.77-5.19,51.15-15.44c14.84-10.79,22.36-24.13,22.36-39.68
				C2555.61,1549.45,2547.14,1535.83,2530.59,1525.7z"/>
			<path d="M2718,1455.13c-14.43-14.59-32.17-21.99-52.73-21.99h-49.51c-8.1,0-15.62,2.28-22.37,6.78
				c-10.12,6.98-15.25,16.55-15.25,28.45v152.91h87.14c19.73,0,37.05-6.9,51.48-20.51c14.61-14.11,22.02-31.54,22.02-51.8v-43.53
				C2738.77,1486.01,2731.78,1469.08,2718,1455.13z M2621.08,1471.07h44.18c6.62,0,12.45,2.19,17.83,6.69
				c8.4,6.93,12.48,15.98,12.48,27.69v43.53c0,7.61-2.15,14.65-6.39,20.94c-6.12,9.04-13.94,13.43-23.92,13.43h-44.18V1471.07z"/>
		</g>
	</g>
</g>
</svg>
